<?xml version="1.0" standalone="no"?>
<!DOCTYPE svg PUBLIC "-//W3C//DTD SVG 1.1//EN" "http://www.w3.org/Graphics/SVG/1.1/DTD/svg11.dtd" >
<svg xmlns="http://www.w3.org/2000/svg" xmlns:xlink="http://www.w3.org/1999/xlink" version="1.1">
<metadata>
Created by FontForge 20170910 at Tue Mar 27 18:41:56 2012
 By Jimmy Wärting
Copyright (c) 2011, UGR Design (www.ugrdesign.com.ar),  with Reserved Font Names "Rosarivo", "Rosarivo Pro", "Rosarivo UGR"
</metadata>
<defs>
<font id="Rosarivo-Regular" horiz-adv-x="589" >
  <font-face 
    font-family="Rosarivo"
    font-weight="400"
    font-stretch="normal"
    units-per-em="1000"
    panose-1="2 0 0 0 0 0 0 0 0 0"
    ascent="800"
    descent="-200"
    x-height="499"
    cap-height="723"
    bbox="-21 -424 1112 979"
    underline-thickness="67"
    underline-position="-133"
    unicode-range="U+0020-FB02"
  />
<missing-glyph horiz-adv-x="667" 
 />
    <glyph glyph-name=".notdef" horiz-adv-x="667" 
 />
    <glyph glyph-name=".null" horiz-adv-x="0" 
 />
    <glyph glyph-name="nonmarkingreturn" horiz-adv-x="333" 
 />
    <glyph glyph-name="space" unicode=" " horiz-adv-x="307" 
 />
    <glyph glyph-name="exclam" unicode="!" horiz-adv-x="335" 
d="M136 191l-3 316q0 168 -25 173l-24 4l-3 12l4 13q42 15 123 64q15 0 15 -9l-50 -569zM137 -20q-38 31 -57 75q37 38 77 57q41 -37 55 -76q-10 -14 -32.5 -31t-42.5 -25z" />
    <glyph glyph-name="quotedbl" unicode="&#x22;" horiz-adv-x="433" 
d="M100 840q17 7 35.5 7t39.5 -7l-31 -267q-5 -2 -16 -2t-19 2zM267 840q17 7 35 7t39 -7l-30 -267q-6 -2 -16.5 -2t-18.5 2z" />
    <glyph glyph-name="numbersign" unicode="#" horiz-adv-x="572" 
d="M399 127l-11 -146q-26 -4 -48 -13q-10 0 -15 9q12 55 20 151h-136l-10 -147q-26 -4 -48 -13q-10 0 -15 9q12 55 20 150q-37 0 -100 -7q-9 4 -9 15q9 23 13 44h100l9 138q-40 -1 -113 -8q-9 4 -9 15q9 23 13 44h113l10 125q38 8 49 14q10 0 16 -10q-14 -69 -20 -129h135
l9 125q36 8 49 14q10 0 16 -10q-3 -15 -20 -128q62 4 99 8q9 -4 9 -16q-5 -9 -13 -45h-100l-9 -136q40 1 113 8q9 -4 9 -16q-5 -9 -13 -45h-113zM212 179h137l10 138h-135z" />
    <glyph glyph-name="dollar" unicode="$" horiz-adv-x="469" 
d="M251 589q8 0 10 -6q-4 -50 -4 -74q68 -3 127 -26q-7 -24 -16 -112q-5 -4 -14 -4t-17 2q-3 34 -16 78q-19 19 -65 25v-181l33 -16q115 -56 115 -147q0 -61 -45 -100t-111 -47v-72q-15 -3 -33 -10q-7 0 -11 6l4 75q-85 5 -128 23q-5 52 -19 125q12 7 19.5 7t10.5 -2
q2 -4 8 -23q13 -39 26 -54q30 -30 84 -36v196l-41 20q-97 46 -97 133q0 63 43 97t103 41v72q17 3 34 10zM325 103q0 58 -77 94v-177q34 4 55.5 25t21.5 58zM166.5 448q-18.5 -20 -18.5 -49t18.5 -51.5t45.5 -35.5l5 -3v163q-32 -4 -50.5 -24z" />
    <glyph glyph-name="percent" unicode="%" horiz-adv-x="661" 
d="M308 377q0 -127 -127 -142q-56 0 -88.5 40t-32.5 103.5t34 99.5t93 42q55 0 88 -41t33 -102zM117.5 435.5q-16.5 -13.5 -16.5 -47.5t25.5 -58.5t66.5 -24.5t57.5 15t16.5 49t-25.5 57t-66.5 23t-57.5 -13.5zM601 87q0 -128 -126 -143q-57 0 -89.5 40.5t-32.5 103.5t34 99
t93 42q55 0 88 -40.5t33 -101.5zM411 145q-16 -14 -16 -47.5t25.5 -58t66 -24.5t57 14.5t16.5 48.5t-25.5 57.5t-66.5 23.5t-57 -14zM481 523q3 1 9 1t7 -3q12 -21 34 -45l-186 -272q-29 -42 -86 -131.5t-74 -127.5q-2 -1 -6 -1l-8 3q-12 16 -35 41l165 244q23 33 89 138
t91 153z" />
    <glyph glyph-name="ampersand" unicode="&#x26;" horiz-adv-x="831" 
d="M529 517l120 -2q84 0 116 5q6 -11 6 -17l-2 -8q-62 -6 -103 -66q-33 -49 -57 -104q-25 -61 -74 -157q122 -116 225 -133q23 -4 71 -4q2 -14 2 -20.5t-1 -10.5q-65 -3 -107.5 -11.5t-50.5 -8.5t-30 8.5t-65.5 35.5t-91.5 67q-38 -50 -85 -76t-119 -35q-105 0 -176.5 56.5
t-71.5 148.5q0 75 36.5 128.5t104.5 109.5q-57 93 -57 161t49.5 105.5t127.5 46.5q56 0 100 -34.5t44 -84.5q0 -35 -27 -62q-21 -21 -37 -32t-17 -12l-19 17q35 36 35 79t-28 72.5t-65.5 29.5t-59 -25t-21.5 -69t26.5 -97.5t76.5 -111.5q78 -90 175 -182l28 -27
q71 140 94 284q-30 6 -72 6q-4 8 -4 15t4 15zM305 27q83 0 151 90q-176 162 -257 272q-36 -41 -49.5 -73t-13.5 -77t9 -78.5t27.5 -64.5t52.5 -50t80 -19z" />
    <glyph glyph-name="quotesingle" unicode="'" horiz-adv-x="280" 
d="M100 840q21 7 37.5 7t37.5 -7l-31 -267q-14 -2 -18.5 -2t-16.5 2z" />
    <glyph glyph-name="parenleft" unicode="(" horiz-adv-x="339" 
d="M299 885q-135 -220 -135 -519.5t135 -521.5q-4 -17 -27 -17q-91 117 -141.5 240t-50.5 298.5t50.5 298.5t141.5 240q11 0 18 -5t9 -14z" />
    <glyph glyph-name="parenright" unicode=")" horiz-adv-x="339" 
d="M40 -156q135 222 135 521.5t-135 519.5q0 6 7.5 12.5t19.5 6.5q91 -117 141.5 -240t50.5 -298.5t-50.5 -298.5t-141.5 -240q-10 0 -17 4.5t-10 12.5z" />
    <glyph glyph-name="asterisk" unicode="*" horiz-adv-x="403" 
d="M260 872q-33 -73 -43 -163l135 78q27 -36 48 -52l-3 -11q-91 -11 -164 -44l135 -80q-17 -36 -23 -67l-9 -2q-52 70 -119 121v-156q-41 -5 -68 -16l-8 8q30 67 44 164l-136 -76q-24 34 -46 52q0 7 2 11q79 7 162 40l-134 77q13 31 20 67l11 4q49 -68 120 -119v156
q41 5 68 16z" />
    <glyph glyph-name="plus" unicode="+" horiz-adv-x="569" 
d="M313 237q0 -117 8 -204q-4 -9 -14 -9q-9 3 -52 13v200q-96 0 -187 -8q-9 4 -9 15q7 20 13 48h183q0 97 -10 207q4 9 16 9q10 -6 28.5 -9t23.5 -4v-203q97 0 188 9q10 -4 10 -16q-6 -12 -14 -48h-184z" />
    <glyph glyph-name="comma" unicode="," horiz-adv-x="235" 
d="M184 37q0 -35 -29 -87.5t-79 -100.5q-16 0 -21 15q52 75 52 120q-32 26 -54 71q39 42 78 57q18 -15 33.5 -37.5t19.5 -37.5z" />
    <glyph glyph-name="hyphen" unicode="-" horiz-adv-x="380" 
d="M203 275q64 0 121 9q9 -4 9 -15q-7 -20 -13 -48h-143q-64 0 -121 -9q-9 4 -9 15q7 20 13 48h143z" />
    <glyph glyph-name="period" unicode="." horiz-adv-x="236" 
d="M111 -20q-39 33 -58 75q36 38 78 57q41 -39 54 -76q-9 -14 -32 -30.5t-42 -25.5z" />
    <glyph glyph-name="slash" unicode="/" horiz-adv-x="361" 
d="M328 831l-129 -460q-108 -399 -119 -468q-7 -6 -17 -6q-12 10 -50 31l130 460q108 397 118 468q7 5 18 5q8 -7 49 -30z" />
    <glyph glyph-name="zero" unicode="0" horiz-adv-x="591" 
d="M467.5 446.5q63.5 -77.5 63.5 -199.5t-65 -188t-178 -79q-109 0 -171 75.5t-62 199t64.5 190t176.5 79.5q108 0 171.5 -77.5zM145.5 398q-40.5 -39 -40.5 -122.5t59 -147t145 -63.5t127 41.5t41 124t-58 144.5t-145.5 62t-128 -39z" />
    <glyph glyph-name="one" unicode="1" horiz-adv-x="332" 
d="M211 531q15 -6 21 -22q-17 -40 -20.5 -81.5t-3.5 -218t9 -177.5q28 -3 83 -3q3 -15 3 -16l-3 -16l-117 3q-94 0 -166 -8q-5 5 -5 16l1 9q98 22 108 50q12 29 12 164.5t-2 183.5l-107 -14q-7 10 -7 20.5t2 14.5q87 28 115.5 42.5t76.5 52.5z" />
    <glyph glyph-name="two" unicode="2" horiz-adv-x="489" 
d="M336 -3l-161 3q-100 0 -144 -5q-6 8 -6 21l120 116q3 3 25 23t36 33.5t36 38t36 45.5q33 50 33 93.5t-32 72.5t-73 29t-97 -27q-12 -71 -14 -101q-8 -4 -15.5 -4t-12.5 2q-4 63 -11.5 86.5t-7.5 24.5q0 13 15 19q61 26 164 57q72 0 122 -33t50 -104t-88 -154l-178 -169
h106q88 0 120.5 6.5t48.5 24.5q5 6 19 37q2 1 11 1t15 -6q-3 -18 -7 -38.5t-6 -30.5q-4 -32 -4 -49q-20 -12 -100 -12z" />
    <glyph glyph-name="three" unicode="3" horiz-adv-x="477" 
d="M203 465q-42 0 -114 -26q-10 -62 -13 -102q-8 -4 -17 -4l-12 3q-6 72 -15 102l-4 11q0 10 15 16q40 21 185 59q175 0 175 -119q0 -29 -19 -59.5t-85 -94.5l-38 -36q143 -92 143 -210q0 -103 -87 -171t-269 -133q-8 8 -8 26q140 63 208 119.5t68 125t-42.5 114.5
t-117.5 89l81 74q79 71 79 131q0 85 -113 85z" />
    <glyph glyph-name="four" unicode="4" horiz-adv-x="523" 
d="M309 -95v92q-102 3 -189 3t-127 -5q-5 6 -5 21q25 26 41 48l216 287q53 69 107 151l16 25q16 -2 28 -10q-13 -58 -13 -261v-193q71 0 84 18q13 24 20 44q5 2 12 2t14 -7q-4 -24 -11.5 -58.5t-8.5 -54.5q-16 -9 -110 -11q0 -35 5 -259q-32 -2 -75 -32q-11 0 -20 6
q16 73 16 194zM309 60v308l-230 -308h230z" />
    <glyph glyph-name="five" unicode="5" horiz-adv-x="473" 
d="M424 444q-22 -15 -104.5 -15t-198.5 4l-17 -124q123 -49 202 -117t79 -152q0 -121 -97 -204q-49 -42 -101.5 -73.5t-134.5 -71.5q-10 4 -12 25q127 75 190 139.5t63 143t-69 138t-173 99.5l44 276q117 -5 200 -5t100 17q5 5 11 16.5t9 16.5q14 0 24 -5q-14 -70 -15 -108z
" />
    <glyph glyph-name="six" unicode="6" horiz-adv-x="576" 
d="M67 271q0 93 49.5 192t145 161.5t209.5 91.5q8 -11 8 -25q-126 -52 -198 -114q-117 -102 -117 -304q0 -103 33 -175q17 -37 47.5 -58t71.5 -21q61 0 94 45t33 111t-39 123.5t-103 57.5q-36 0 -70 -19q-14 7 -14 26q53 32 127.5 32t129.5 -56t55 -130q0 -101 -66 -157
t-174 -72q-101 0 -161.5 81t-60.5 210z" />
    <glyph glyph-name="seven" unicode="7" horiz-adv-x="503" 
d="M499 515q8 -6 10 -19q-86 -113 -184 -305q-117 -234 -196 -482q-4 -2 -9 -2t-9 2q-24 24 -57 31l-11 3q96 220 218 436q75 130 154 252q-91 8 -215 8t-139 -24q-14 -26 -21 -43q-3 -1 -10.5 -1t-16.5 6q23 128 23 139q75 -7 239 -7t224 6z" />
    <glyph glyph-name="eight" unicode="8" horiz-adv-x="496" 
d="M52 525q0 82 54 125.5t141 56.5q68 0 125 -43.5t57 -100.5t-32 -94t-106 -88q78 -48 123 -95t45 -107q0 -88 -61.5 -136.5t-157.5 -62.5q-76 0 -140 47.5t-64 114.5t45.5 115.5t126.5 95.5q-75 45 -115.5 84t-40.5 88zM119 169q0 -63 39 -108t96.5 -45t91 37.5t33.5 92.5
t-40 98t-111 89q-109 -79 -109 -164zM353 539q0 56 -35 96t-85.5 40t-81 -34t-30.5 -74q0 -72 150 -166q82 64 82 138z" />
    <glyph glyph-name="nine" unicode="9" horiz-adv-x="576" 
d="M509 211q0 -98 -41.5 -204.5t-116.5 -178.5q-94 -89 -202 -127q-10 11 -10 26q65 36 106 67.5t80 82.5q87 112 87 332q0 163 -62 235q-36 41 -93 41t-89.5 -48t-32.5 -118t38 -131t102 -61q31 0 72 18q13 -7 13 -25q-51 -32 -126.5 -32t-131 58t-55.5 135q0 106 66.5 166
t174.5 77q101 0 161 -87.5t60 -225.5z" />
    <glyph glyph-name="colon" unicode=":" horiz-adv-x="236" 
d="M111 324q-39 33 -58 75q36 38 78 57q41 -39 54 -76q-9 -14 -32 -30.5t-42 -25.5zM111 -20q-39 33 -58 75q36 38 78 57q41 -39 54 -76q-9 -14 -32 -30.5t-42 -25.5z" />
    <glyph glyph-name="semicolon" unicode=";" horiz-adv-x="244" 
d="M184 37q0 -35 -29 -87.5t-79 -100.5q-16 0 -21 15q52 75 52 120q-32 26 -54 71q39 42 78 57q18 -15 33.5 -37.5t19.5 -37.5zM119 324q-39 33 -58 75q36 38 78 57q41 -39 54 -76q-9 -14 -32 -30.5t-42 -25.5z" />
    <glyph glyph-name="less" unicode="&#x3c;" horiz-adv-x="495" 
d="M264 156l-224 96v32l224 96q118 50 176 80q8 0 11 -11q0 -32 4 -53l-316 -128l316 -128q-4 -21 -4 -53q-2 -9 -11 -11q-58 30 -176 80z" />
    <glyph glyph-name="equal" unicode="=" horiz-adv-x="559" 
d="M277 383q135 0 232 9q10 -4 10 -16q-3 -6 -14 -53h-226q-132 0 -230 -8q-9 4 -9 14q4 9 13 54h224zM277 204q135 0 232 9q10 -4 10 -16q-3 -6 -14 -53h-226q-132 0 -230 -8q-9 4 -9 15q4 9 13 53h224z" />
    <glyph glyph-name="greater" unicode="&#x3e;" horiz-adv-x="495" 
d="M455 252l-224 -96q-138 -61 -176 -80q-8 0 -11 11q0 32 -4 53l316 128l-316 128q4 21 4 53q2 9 11 11q58 -30 176 -80l224 -96v-32z" />
    <glyph glyph-name="question" unicode="?" horiz-adv-x="416" 
d="M128 -20q-38 31 -57 75q33 37 77 57q40 -38 55 -76q-10 -14 -33 -31t-42 -25zM112 360q0 6 4 6q7 0 13 2q67 11 121.5 34.5t61.5 57.5q5 20 5 44q0 106 -146 145q-10 3 -30.5 8t-30 8t-20.5 7q-22 7 -22 17q0 6 4.5 44.5t4.5 75.5q9 3 15.5 3t15.5 -4q0 -22 5 -36
q21 -14 63.5 -29t56.5 -22q130 -63 130 -204q0 -12 -4 -48q-29 -68 -65.5 -101t-102.5 -48q-6 -17 -23 -124q-7 -4 -18.5 -4t-20.5 3q-6 91 -11.5 125t-5.5 40z" />
    <glyph glyph-name="at" unicode="@" horiz-adv-x="904" 
d="M463 -193q-183 0 -291 99.5t-108 277.5q0 117 62.5 219t167 161t222.5 59q151 0 244 -89t93 -238q0 -105 -46 -184q-51 -87 -168 -119q-63 0 -83 69q-17 60 -21 147q-79 -160 -152 -197q-37 7 -66.5 45t-29.5 98.5t21.5 113t50 81.5t63.5 48q54 31 94 34.5t51 7.5l46 16
q9 0 11 -5q-11 -157 -11 -286q0 -51 16 -92.5t35 -41.5q32 0 68.5 79t36.5 187q0 137 -71.5 214t-204.5 77q-96 0 -174 -59.5t-119 -151t-41 -192.5q0 -154 80.5 -247t227.5 -93q91 0 169 24q11 -9 11 -30q-94 -32 -184 -32zM408 91q37 0 83.5 80t52.5 158l5 67
q-45 0 -78.5 -4t-66.5 -64t-33 -151q0 -38 11 -62t26 -24z" />
    <glyph glyph-name="A" unicode="A" horiz-adv-x="747" 
d="M749 -3l-117 3q-76 0 -133 -8q-6 8 -6 17l2 8q39 9 54.5 20.5t15.5 25.5t-14 56l-59 150q-54 3 -129 3l-143 -3l-25 -64q-50 -124 -50 -176q23 -1 70 -1q2 -7 2 -16t-2 -15l-106 3q-63 0 -110 -8q-6 7 -6 17l2 8q51 14 74.5 44t70.5 136l247 560h16l230 -588
q6 -19 31.5 -73.5t32.5 -64.5q28 -3 52 -3q3 -7 3 -16t-3 -15zM235 308l128 -4q69 0 116 3l-116 306z" />
    <glyph glyph-name="B" unicode="B" horiz-adv-x="681" 
d="M49 723l152 -3h154q95 0 153.5 -42t58.5 -123q0 -65 -44 -110t-91 -57q82 -15 127.5 -64t45.5 -128q0 -92 -80.5 -144t-200.5 -52q-219 0 -284 -8q-5 6 -5 17l1 8q52 12 68 37q13 20 17 50q12 91 12 248q0 329 -18 335q-19 5 -66 5q-2 7 -2 16t2 15zM219 372v-200
q0 -94 6 -132q36 -4 84 -4q103 0 153.5 35t50.5 113.5t-50 130.5t-130 52h-42q-6 7 -6 17l6 20h29q160 0 160 139q0 69 -42 105.5t-110.5 36.5t-96.5 -4q-12 -48 -12 -309z" />
    <glyph glyph-name="C" unicode="C" horiz-adv-x="760" 
d="M435 -20q-172 0 -271.5 107.5t-99.5 271t108 270.5t276 107q133 0 236 -33q5 -3 5 -7.5t-3 -31.5q-13 -93 -14 -136q-15 -3 -21 -3t-18 4q-9 69 -18 103q-26 28 -73 48t-107 20q-114 0 -188.5 -80t-74.5 -219q0 -98 32.5 -184t97 -141.5t153.5 -55.5t158 48q19 32 47 107
q24 0 37 -10q-14 -72 -21 -145q-1 -11 -13 -13q-96 -27 -228 -27z" />
    <glyph glyph-name="D" unicode="D" horiz-adv-x="824" 
d="M376 -4l-148 4q-136 0 -203 -8q-5 6 -5 16l1 9q70 14 87 39q9 14 11 22.5t7.5 68.5t6.5 205v116q0 213 -17 219q-29 5 -69 5q-3 7 -3 16t3 15l112 -3h96l121 4q187 0 285.5 -100.5t98.5 -259t-108 -263.5t-276 -105zM308 685q-48 0 -75 -4q-12 -44 -12 -194v-315
q0 -89 4 -119q67 -17 140 -17q146 0 216.5 80.5t70.5 230.5q0 136 -78 233q-40 48 -108.5 76.5t-157.5 28.5z" />
    <glyph glyph-name="E" unicode="E" horiz-adv-x="649" 
d="M431 -4l-171 4h-53q-116 0 -167 -8q-5 6 -5 17l1 8q52 12 68 37q13 20 17 50q12 91 12 248q0 329 -18 335q-19 5 -66 5q-2 7 -2 16t2 15l152 -3h115l236 7q17 0 17 -11q0 -1 -3 -24q-10 -62 -14 -139q-12 -6 -21.5 -6t-17.5 4q-12 91 -18 113q-91 21 -163.5 21t-100.5 -4
q-12 -64 -12 -285q16 -4 85 -4t103 4t49.5 16t23.5 49q21 0 31 -6q-10 -57 -10 -84l2 -87q-7 -5 -18 -5l-14 2l-11 66q-54 9 -126 9t-115 -5v-179q0 -94 6 -132q31 -4 71 -4q103 0 204 27q15 24 29 62.5t16 45.5q6 1 16 1t22 -9q-15 -71 -22 -147q-1 -12 -13 -13
q-44 -7 -117 -7z" />
    <glyph glyph-name="F" unicode="F" horiz-adv-x="631" 
d="M501 360l2 -87q-14 -4 -20 -4l-12 2l-11 65q-36 9 -124.5 9t-116.5 -5v-116q0 -103 8 -187q46 -6 125 -6q4 -10 4 -19.5t-4 -14.5l-173 3q-76 0 -139 -8q-5 6 -5 17l1 8q52 12 68 37q13 20 17 50q12 91 12 228q0 348 -18 355q-19 5 -66 5q-2 7 -2 16t2 15l152 -3h128
l236 7q18 0 18 -11q0 -1 -3 -24q-11 -72 -15 -139q-12 -6 -21.5 -6t-16.5 4q-11 83 -19 113q-91 21 -167.5 21t-109.5 -4q-12 -46 -12 -296q24 -4 85 -4t99 4t54.5 16.5t22.5 50.5q19 0 31 -7q-10 -57 -10 -85z" />
    <glyph glyph-name="G" unicode="G" horiz-adv-x="817" 
d="M495 292l160 -3q47 0 92 8q4 -10 4 -17l-2 -12q-38 -16 -42 -65q-7 -68 -7 -192q-60 0 -139 -15.5t-126 -15.5q-172 0 -271.5 107.5t-99.5 271t108 270.5t276 107q136 0 241 -29q7 -2 7 -7t-0.5 -13t-2 -22.5t-2.5 -32.5q-2 -38 -2 -100q-7 -4 -19 -4t-19 3
q-18 81 -26 101q-79 68 -191.5 68t-187 -80t-74.5 -219q0 -98 32.5 -184t97 -141.5t150 -55.5t163.5 36v61q0 75 -6 136q-51 6 -114 6q-4 7 -4 16z" />
    <glyph glyph-name="H" unicode="H" horiz-adv-x="839" 
d="M620 352l-187 5q-84 0 -214 -5v-184q0 -136 12 -137q18 -3 68 -3q2 -7 2 -16t-2 -15l-99 3q-97 0 -160 -8q-5 6 -5 17l1 8q52 12 68 37q13 20 17 50q12 91 12 281v167q0 136 -12 137q-18 3 -68 3q-2 7 -2 16t2 15l103 -3q93 0 143 8q4 -8 4 -25q-29 -7 -45 -22.5
t-20 -28.5q-15 -48 -19 -256q100 -4 214 -4l187 4v156q0 136 -12 137q-19 3 -68 3q-3 7 -3 16t3 15l103 -3q93 0 142 8q4 -9 4 -25q-29 -8 -45 -23t-20.5 -28.5t-6.5 -35.5q-12 -106 -12 -236v-212q0 -136 12 -137q19 -3 74 -3q2 -7 2 -16t-2 -15l-104 3q-107 0 -174 -8
q-5 6 -5 17l1 8q60 14 77.5 31t21.5 56q11 102 12 248z" />
    <glyph glyph-name="I" unicode="I" horiz-adv-x="356" 
d="M49 723l130 -3l128 3q2 -6 2 -15l-2 -16q-44 0 -67 -3q-17 -2 -17 -225v-163q0 -95 4.5 -182t11.5 -88q26 -3 88 -3q2 -7 2 -16t-2 -15l-127 3q-105 0 -172 -8q-5 5 -5 17l1 8q65 14 80 33q9 12 12 21t5 28q12 78 12 253v112q0 223 -17 225q-23 3 -67 3q-2 7 -2 16t2 15z
" />
    <glyph glyph-name="J" unicode="J" horiz-adv-x="353" 
d="M39 723l125 -3q84 0 128 8q5 -6 5 -17l-1 -8q-44 -8 -57 -87q-10 -45 -10 -221v-311q0 -122 -20.5 -174t-95.5 -110l-100 -76q-18 4 -18 23l56 57q58 59 73.5 140.5t15.5 222.5v266q0 254 -16 256q-27 3 -85 3q-3 7 -3 16t3 15z" />
    <glyph glyph-name="K" unicode="K" horiz-adv-x="707" 
d="M316 -3l-133 3q-99 0 -158 -8q-5 6 -5 17l1 8q60 14 77.5 31t22.5 56q12 115 12 248v116q0 219 -17 221q-23 3 -69 3q-3 7 -3 16t3 15l112 -3q93 0 141 8q4 -5 4 -25q-35 -5 -49.5 -24.5t-21.5 -49.5q-10 -52 -10 -234v-184q0 -115 6 -178q27 -5 87 -5q3 -7 3 -16z
M709 31q3 -6 3 -17t-1 -14q-66 -3 -110.5 -11.5t-49.5 -8.5q-31 0 -215 294q-73 116 -81 127l130 123q91 85 126 157q-18 10 -78 12q-1 4 -1 11l4 20q101 -4 122.5 -4t81.5 5q8 -7 8 -25q-60 -37 -104 -76l-204 -180q189 -301 244 -365q37 -43 64 -46q17 -2 61 -2z" />
    <glyph glyph-name="L" unicode="L" horiz-adv-x="596" 
d="M444 -4l-171 4h-66q-113 0 -167 -8q-5 6 -5 17l1 8q52 12 68 37q13 20 20.5 76.5t7.5 218.5v202q0 137 -13 138q-19 3 -60 3q-3 7 -3 16t3 15l96 -3q92 0 142 8q6 -8 6 -16l-2 -9q-41 -11 -54 -27.5t-16 -47.5q-12 -123 -12 -267v-189q0 -94 6 -132q36 -4 84 -4
q103 0 204 27q16 23 29.5 61.5t16.5 46.5q5 1 15 1t22 -9q-4 -21 -13 -88t-11 -69q-13 -10 -128 -10z" />
    <glyph glyph-name="M" unicode="M" horiz-adv-x="1015" 
d="M976 -3l-104 3q-108 0 -175 -8q-5 6 -5 17l1 8q60 14 76 30t19 68t3 108.5t-6 172.5l-8 164q-46 -85 -143.5 -289t-126.5 -291h-28q-195 441 -250 537l-42 72q-4 -124 -4 -302.5t12 -255.5q22 -3 78 -3q3 -8 3 -17.5t-3 -13.5l-113 3q-69 0 -116 -8q-5 6 -5 17l1 8
q49 11 65.5 32t21.5 55q24 171 28 539q-27 34 -59 48q-4 1 -56 8l-3 14q0 10 3 16l160 4q15 0 51.5 -53t72.5 -117.5t83.5 -167.5t79.5 -178t36 -82q13 29 123 261.5t145 323.5q101 0 161 9q5 -9 5 -25q-50 -11 -67 -33t-19 -47t-2 -94t6.5 -234t20.5 -265q19 -3 80 -3
q3 -7 3 -16t-3 -15z" />
    <glyph glyph-name="N" unicode="N" horiz-adv-x="860" 
d="M264 -3l-113 3q-69 0 -116 -8q-6 8 -6 17l2 8q52 12 69 37q13 20 17 50q18 130 23 549q-25 27 -44 35t-61 11q-3 6 -3 15.5t3 14.5l164 4q30 0 202 -206q98 -116 287 -370q-3 78 -6.5 278.5t-12.5 253.5q-22 3 -81 3q-4 8 -4 16.5t3 14.5l113 -3q69 0 116 8q5 -6 5 -17
l-1 -8q-49 -11 -65 -31t-19 -56q-13 -208 -13 -631l-24 -10l-22 28q-191 252 -374 478q-72 88 -131 142q0 -135 0.5 -321t12.5 -271q23 -3 79 -3q3 -8 3 -16t-3 -15z" />
    <glyph glyph-name="O" unicode="O" horiz-adv-x="843" 
d="M779 357q0 -70 -19.5 -128.5t-49 -96t-68.5 -67t-74.5 -45t-71.5 -25.5q-53 -15 -80 -15q-146 0 -249 108.5t-103 268.5q0 70 19.5 128.5t49 96.5t68.5 67.5t75 45.5t71 26q52 15 81 15q145 0 248 -110.5t103 -268.5zM447 32q113 0 171.5 76.5t58.5 196.5q0 93 -33.5 179
t-98.5 143.5t-146 57.5q-113 0 -173.5 -78.5t-60.5 -194.5q0 -93 34.5 -179.5t100.5 -143.5t147 -57z" />
    <glyph glyph-name="P" unicode="P" horiz-adv-x="657" 
d="M49 723l152 -3h128q122 0 192 -52t70 -162.5t-75 -166.5t-196 -56q-37 0 -56 1q-5 6 -5 17l5 20q13 -1 52 -1q80 0 133.5 47.5t53.5 126t-47.5 135t-117.5 56.5t-107 -4q-6 -17 -9 -75t-3 -311v-123q0 -82 5 -135q47 -6 128 -6q4 -10 4 -19.5t-4 -14.5l-173 3
q-76 0 -139 -8q-5 6 -5 17l1 8q52 12 68 37q13 20 17 50q12 91 12 246q0 331 -18 337q-19 5 -66 5q-2 7 -2 16t2 15z" />
    <glyph glyph-name="Q" unicode="Q" horiz-adv-x="843" 
d="M779 357q0 -234 -206 -333q16 -21 47 -57t54.5 -58.5t45.5 -36.5q29 -18 77 -37q27 0 79 12q11 -10 11 -30q-11 -3 -49 -16q-95 -32 -109 -32q-55 0 -197 156q-19 20 -55 66q-45 -11 -61 -11q-146 0 -249 108.5t-103 268.5q0 70 19.5 128.5t49 96.5t68.5 67.5t75 45.5
t71 26q52 15 81 15q145 0 248 -110.5t103 -268.5zM447 32q113 0 171.5 76.5t58.5 196.5q0 93 -33.5 179t-98.5 143.5t-146 57.5q-113 0 -173.5 -78.5t-60.5 -194.5q0 -93 34.5 -179.5t100.5 -143.5t147 -57z" />
    <glyph glyph-name="R" unicode="R" horiz-adv-x="704" 
d="M49 723l152 -3h119q113 0 178 -48.5t65 -150.5q0 -77 -40.5 -126.5t-110.5 -69.5q35 -61 87.5 -139t85 -114.5t54.5 -40t68 -3.5q2 -8 2 -15.5t-2 -15.5q-73 -4 -113.5 -10.5t-48 -6.5t-30 25.5t-52.5 71t-54.5 84.5t-55 89.5t-37.5 61.5q-64 0 -99 4v-149q0 -60 7 -132
q31 -7 88 -7q3 -8 3 -17.5t-3 -13.5l-133 3q-76 0 -139 -8q-5 6 -5 17l1 8q52 12 68 37q13 20 17 50q12 91 12 246q0 331 -18 337q-19 5 -66 5q-4 7 -4 13t4 18zM434.5 636q-41.5 52 -110.5 52t-96 -4q-11 -44 -11 -332q36 -3 100 -3t111.5 44t47.5 117.5t-41.5 125.5z" />
    <glyph glyph-name="S" unicode="S" horiz-adv-x="639" 
d="M463 660q-67 43 -129 43t-100 -34t-38 -85.5t41 -89.5t132 -82q146 -71 185 -152q18 -38 18 -81q0 -93 -78.5 -146t-184.5 -53q-57 0 -119 11t-89 22q-10 78 -34 178q18 9 27.5 9t14.5 -1q28 -70 52 -106q21 -22 37 -35.5t52.5 -27.5t88.5 -14t94 36t42 92q0 45 -16 65
t-23.5 30t-28.5 23.5t-29 18.5t-34.5 19t-47 25.5t-34.5 19.5t-43 25.5t-41 28t-31 28.5t-27 33q-20 43 -20 81q0 92 77 143.5t186 51.5q45 0 100 -12t85 -25q-9 -35 -17 -146q-10 -5 -21 -5t-19 4q-1 12 -12 54.5t-16 53.5z" />
    <glyph glyph-name="T" unicode="T" horiz-adv-x="683" 
d="M504 -3l-164 3q-108 0 -179 -8q-5 6 -5 17l1 8q69 11 91 28.5t29 57.5q14 74 14 248t-4 243t-10 86q-25 5 -61 5q-84 0 -131 -22l-44 -110q-23 0 -34 8l16 155q0 11 17 11l176 -7h245l192 7q18 0 18 -11q-16 -88 -16 -161q-8 -4 -20 -4t-19 4q-18 99 -20 108
q-50 22 -137 22q-39 0 -63 -5q-3 -9 -7.5 -83t-4.5 -190v-179q0 -111 16 -193q46 -7 104 -7q3 -8 3 -17.5t-3 -13.5z" />
    <glyph glyph-name="U" unicode="U" horiz-adv-x="829" 
d="M49 723l96 -3q106 0 160 8q6 -8 6 -17l-2 -8q-53 -12 -67 -31q-11 -14 -15 -44q-12 -117 -12 -332q0 -129 52 -201t162 -72q131 0 181.5 70.5t50.5 215.5v124q0 182 -10 256q-23 3 -86 3q-2 8 -2 17.5t2 13.5l118 -3q76 0 117 8q5 -6 5 -17l-1 -8q-77 -17 -84 -104
q-11 -129 -11 -315q0 -147 -72.5 -225.5t-215.5 -78.5q-76 0 -132.5 19t-88 48t-50.5 71t-24.5 79.5t-5.5 81.5v153q0 81 -9 257q-19 3 -62 3q-2 7 -2 16t2 15z" />
    <glyph glyph-name="V" unicode="V" horiz-adv-x="809" 
d="M4 703q-1 5 -1 10.5t5 14.5q64 -8 148 -8t147 3q2 -6 2 -15l-2 -16q-58 0 -82 -1q0 -38 24.5 -122.5t57.5 -164.5l122 -296l134 296q40 89 69 173.5t29 110.5q-18 4 -76 4q-2 7 -2 16t2 15q66 -3 118 -3t102 8q6 -6 6 -17l-2 -8q-39 -12 -62 -35q-33 -33 -77 -126
q-22 -47 -40 -87.5t-23 -50.5l-202 -443h-17l-216 519q-61 152 -96 192q-15 17 -68 31z" />
    <glyph glyph-name="W" unicode="W" horiz-adv-x="1112" 
d="M617 719l98 1q50 0 88 4q5 -6 5 -19l-1 -6q-24 -8 -36 -26q-20 -26 -138 -242l131 -323l117 296q84 211 95 284q-19 4 -76 4q-3 5 -3 14.5t3 16.5q66 -3 111.5 -3t95.5 8q5 -6 5 -17l-1 -8q-27 -10 -46.5 -30t-49.5 -76t-46 -93l-229 -543h-17l-152 371l-179 -371h-17
l-210 519q-59 150 -94 191q-16 18 -70 32q-1 4 -1 12t5 13q64 -8 138 -8t156 3q2 -4 2 -14l-2 -17q-58 0 -82 -1q6 -86 83 -287l116 -296l135 272l-40 100q-61 152 -88 193q-12 17 -47 26q-1 2 -1 10t4 15q48 -4 134 -4zM540 689q4 -62 71 -220q83 186 89 220q-45 3 -81 3z
" />
    <glyph glyph-name="X" unicode="X" horiz-adv-x="743" 
d="M15 729l158 4q15 0 69 -74q39 -52 87.5 -136.5t59.5 -102.5l38 47q6 8 24.5 30.5t25 30.5t21 27t22 30.5t18.5 29.5q21 35 38 72q-49 2 -93 2q-4 8 -4 17t4 14h102q70 0 138 8q5 -6 5 -16l-1 -11q-39 -11 -80 -49t-114 -125l-122 -146q40 -73 106 -180q100 -162 163 -169
q17 -1 60 -1q3 -7 3 -16.5t-2 -14.5q-60 -3 -107.5 -11.5t-52.5 -8.5q-15 0 -53.5 43t-91.5 127.5t-99 165.5l-52 -68q-101 -133 -137 -215q49 -2 87 -2q2 -8 2 -17.5t-2 -13.5h-102q-58 0 -126 -8q-6 9 -6 25q28 8 63.5 42t134.5 154l117 142q-58 101 -103 177t-79.5 112
t-53.5 44t-65 11q-3 6 -3 15t3 15z" />
    <glyph glyph-name="Y" unicode="Y" horiz-adv-x="723" 
d="M3 729l162 4q10 0 51.5 -55t94 -148.5t80.5 -177.5q15 26 45 77.5t45.5 79t35.5 65.5q37 68 47 114q-21 4 -81 4q-3 7 -3 16t3 15q66 -3 127 -3t107 8q6 -10 6 -17l-2 -8q-27 -8 -62 -34q-45 -32 -134 -169t-102 -187q-8 -21 -8 -115.5t10 -162.5q41 -7 115 -7
q3 -7 3 -16l-3 -15l-159 3q-116 0 -192 -8q-5 6 -5 17l1 8q96 15 117 45t21 113t-14 137.5t-81.5 168.5t-122.5 174q-22 25 -41.5 33.5t-60.5 10.5q-3 6 -3 16.5t3 13.5z" />
    <glyph glyph-name="Z" unicode="Z" horiz-adv-x="737" 
d="M507 -1l-184 1q-183 0 -275 -12q-7 12 -7 28q32 33 55 65q256 345 415 600h-120q-159 0 -244 -24q-7 -24 -19 -102q-7 -4 -17 -4t-22 2q-3 72 -17 163q0 11 17 11l280 -7h62q127 0 226 13q8 -10 8 -26q-32 -23 -203 -272t-265 -395h100q75 0 169 13t131 26q24 32 56 98
q22 0 38 -8q-19 -76 -31 -153q-1 -12 -19.5 -14.5t-133.5 -2.5z" />
    <glyph glyph-name="bracketleft" unicode="[" horiz-adv-x="409" 
d="M229 439v-200q0 -288 4 -311t13.5 -32.5t28.5 -12.5l72 -7q4 -8 4 -13l-4 -14q-100 -14 -179 -46q-8 0 -15 9q11 97 11 443v168q0 345 -11 442q4 10 15 10q83 -33 179 -47q4 -7 4 -13t-4 -14q-49 -4 -70.5 -6t-31.5 -13.5t-11 -24.5q-5 -39 -5 -318z" />
    <glyph glyph-name="backslash" unicode="\" horiz-adv-x="357" 
d="M195 387l129 -460l-48 -30q-3 -1 -7 -1l-12 5q-17 118 -118 468l-130 462q37 18 48 28q3 1 8 1l11 -5q18 -117 119 -468z" />
    <glyph glyph-name="bracketright" unicode="]" horiz-adv-x="409" 
d="M180 239v200q0 291 -3 311q-6 40 -42 45l-72 6q-4 5 -4 12l4 15q95 14 178 47q9 0 15 -10q-11 -97 -11 -442v-168q0 -346 11 -443q-4 -9 -15 -9q-79 32 -178 46q-4 6 -4 14t4 13q49 3 70 6.5t30.5 13.5t10.5 20q6 39 6 323z" />
    <glyph glyph-name="asciicircum" unicode="^" horiz-adv-x="556" 
d="M263 856h30q65 -131 223 -491q-17 -17 -41 -17l-194 400l-200 -400q-24 0 -41 17q158 360 223 491z" />
    <glyph glyph-name="underscore" unicode="_" horiz-adv-x="567" 
d="M283 -43q162 0 276 10q9 -4 9 -16q-3 -6 -13 -48h-271q-160 0 -273 -8q-10 4 -10 14q8 20 14 48h268z" />
    <glyph glyph-name="grave" unicode="`" 
d="M371 547l-172 150q14 35 56 51q54 -78 117 -158l21 -26q-4 -17 -22 -17z" />
    <glyph glyph-name="a" unicode="a" horiz-adv-x="493" 
d="M395 364l-3 -244q0 -73 47 -73l36 1q4 -5 4 -16l-2 -11q-77 -14 -110 -41q-22 6 -37.5 27.5t-17.5 45.5q-80 -49 -159 -73q-34 0 -70 38.5t-36 96.5q0 29 13 52.5t31 32.5q74 37 220 65v95q0 55 -17.5 82t-42 27t-52.5 -8.5t-39.5 -32.5t-11.5 -68q0 -4 -13.5 -8.5
t-34 -4.5t-28 9.5t-7.5 28.5q0 36 52 78q12 8 70.5 27t67.5 19q72 0 106 -42t34 -103zM155 68q19 -28 43.5 -28t56.5 17t53 36q3 59 3 136q-84 -11 -148 -48q-27 -13 -27 -61q0 -24 19 -52z" />
    <glyph glyph-name="b" unicode="b" 
d="M179 88q0 -24 56 -44.5t78 -20.5q57 0 104.5 51t47.5 119q0 104 -47 175t-103.5 71t-135.5 -63v-288zM549 231q0 -67 -32.5 -119t-80.5 -79q-93 -53 -168 -53q-26 0 -137 24l-39 -24q-10 0 -15 9q15 55 19 130.5t4 319.5v236q0 66 -10 92.5t-42 31.5l-35 4q-2 8 -2 12
l2 13q54 10 82 19.5t89 47.5q9 0 15 -10q-20 -117 -20 -466q122 71 181 90q75 -16 132 -91.5t57 -186.5z" />
    <glyph glyph-name="c" unicode="c" horiz-adv-x="476" 
d="M288 509q97 0 160 -58q-3 -17 -20.5 -36t-39.5 -24q-32 38 -64 58t-78.5 20t-84.5 -60.5t-38 -125t16.5 -115.5t56.5 -86t97.5 -35t146.5 38q9 -5 9 -20l-97 -66q-10 -6 -37 -12.5t-44 -6.5q-113 0 -172 74t-59 186q0 66 24 117.5t56 79t70 45.5q61 27 98 27z" />
    <glyph glyph-name="d" unicode="d" horiz-adv-x="604" 
d="M495 249q0 -133 5 -157q8 -45 41 -45q12 0 36 1q4 -7 4 -17l-1 -10q-68 -12 -100 -33l-12 -8q-15 0 -35 28t-20 63q-78 -50 -186 -91q-73 15 -130 90.5t-57 174.5q0 64 25 114.5t59 77t74 44.5q62 28 101 28q4 0 116 -16v182q0 91 -21 111q-11 11 -29 13l-36 4
q-4 8 -4 12l4 13q43 8 83 21q40 15 87 46q12 0 16 -10q-20 -76 -20 -636zM170.5 121.5q46.5 -70.5 104 -70.5t140.5 62v287q0 28 -68 47.5t-95 19.5q-42 0 -85 -57.5t-43 -126.5q0 -91 46.5 -161.5z" />
    <glyph glyph-name="e" unicode="e" horiz-adv-x="517" 
d="M300 52q82 0 145 44q14 -5 16 -21l-108 -76q-24 -19 -107 -19t-141 74.5t-58 188.5t63 180t150 86q76 0 134 -51q35 -30 49 -78q3 -12 28 -13q6 -7 6 -14.5t-2 -15.5q-176 -41 -346 -57q0 -128 71 -192q40 -36 100 -36zM363 357q5 3 5 7.5t-12.5 28t-43.5 50t-65 26.5
t-50 -10q-56 -38 -64 -138q54 0 123 11.5t107 24.5z" />
    <glyph glyph-name="f" unicode="f" horiz-adv-x="352" 
d="M319 -3l-138 3q-83 0 -152 -8q-5 6 -5 17l1 8q65 13 78 51q16 45 16 347v33l-99 -1q-7 4 -7 12q5 10 11 34h96q1 16 6.5 90.5t31 126.5t56.5 78.5t68 43.5q54 24 100.5 24t122.5 -37q-4 -23 -17.5 -44.5t-34.5 -29.5q-84 68 -128 68q-35 0 -71 -57t-43 -124.5t-8 -138.5
q76 0 132 7q6 -4 6 -13q-4 -8 -6.5 -20.5t-3.5 -15.5l-130 -2v-150q0 -266 12 -267q41 -4 106 -4q4 -8 4 -15.5t-4 -15.5z" />
    <glyph glyph-name="g" unicode="g" horiz-adv-x="563" 
d="M211 59q-35 -19 -35 -37.5t19 -33t56 -17.5l146 -15q154 -15 154 -144q0 -74 -98 -133t-216 -59q-88 0 -150 49.5t-62 125.5q0 11 12 20l146 97q-94 34 -94 107q0 8 20 21q44 26 136 71q-90 6 -140 60.5t-50 118t24 107t59 66.5q72 46 133 46q43 0 77 -10.5t48 -10.5
l141 24q12 -16 12 -35.5t-6 -31.5q-40 2 -122 3q29 -26 45.5 -61.5t16.5 -69.5q-1 -67 -39.5 -111t-131.5 -94zM159.5 -292.5q43.5 -39.5 126.5 -39.5t134 36.5t51 94.5q0 83 -115 94q-65 6 -132 10l-76 -60q-32 -27 -32 -61.5t43.5 -74zM181.5 202.5q40.5 -59.5 96.5 -59.5
t86.5 40.5t30.5 112.5t-37.5 126t-96 54t-89.5 -40t-31 -107t40.5 -126.5z" />
    <glyph glyph-name="h" unicode="h" horiz-adv-x="625" 
d="M249 -3l-84 3q-78 0 -141 -8q-5 6 -5 17l1 8q41 9 55.5 27.5t22 61t7.5 313.5v256q0 91 -21 111q-11 11 -28 13l-36 4q-3 5 -3 12.5t3 12.5q71 13 110 32q26 13 59 35q10 0 16 -10q-20 -125 -20 -469q127 70 203 93q65 0 98 -48t33 -129l-2 -128q0 -171 15 -173.5
t59 -2.5q4 -7 4 -13t-4 -18l-92 3q-83 0 -132 -8q-6 8 -6 17l2 8q41 9 55 27t16.5 43t2.5 101t-0.5 94.5t-3 48t-9 45t-16.5 32.5q-20 31 -71 31t-113 -41q-9 -5 -23 -14.5t-16 -10.5q-1 -50 -1 -106q0 -231 12.5 -235t52.5 -4q3 -7 3 -16t-3 -15z" />
    <glyph glyph-name="i" unicode="i" horiz-adv-x="317" 
d="M269 -3l-90 3q-70 0 -132 -8q-6 8 -6 17l2 8q43 10 58 31q11 16 17 38.5t6 129.5v96q0 62 -5.5 86t-16.5 32t-29 10l-37 3q-3 4 -3 13l3 13q52 11 84.5 22.5t76.5 33.5q11 0 15 -12q-12 -68 -12 -324q0 -46 3.5 -101.5t9.5 -56.5q15 -3 56 -3q3 -7 3 -16t-3 -15zM175 639
q-36 25 -51 66q12 14 32.5 29.5t35.5 21.5q38 -28 49 -67q-28 -36 -66 -50z" />
    <glyph glyph-name="j" unicode="j" horiz-adv-x="293" 
d="M111 305q0 68 -9 96.5t-43 31.5q-14 2 -38 3q-2 7 -2 15t2 12q40 7 84 21q65 25 84 35q15 0 15 -10q-13 -73 -13 -320v-245q0 -102 -20.5 -159t-82.5 -105l-84 -64q-16 5 -16 20l44 44q55 55 67 125t12 276v224zM167 639q-36 25 -51 66q12 14 32.5 29.5t35.5 21.5
q38 -28 49 -67q-28 -36 -66 -50z" />
    <glyph glyph-name="k" unicode="k" horiz-adv-x="539" 
d="M508 29q5 -1 17 -1t22 1q4 -10 4 -17.5t-2 -11.5q-46 -3 -83.5 -11.5t-41.5 -8.5q-23 0 -160 222q-53 88 -59 97l98 72q55 40 102 90q-33 7 -74 8q-3 6 -3 15l3 12q82 -3 108 -3t76 4q6 -8 6 -24l-233 -154q52 -82 99 -154.5t74 -102.5t47 -33zM249 -3l-84 3
q-78 0 -141 -8q-5 6 -5 17l1 8q41 9 55.5 27.5t22 61t7.5 313.5v256q0 91 -21 111q-11 11 -28 13l-36 4q-3 5 -3 12.5t3 12.5q71 13 110 32q26 13 59 35q10 0 16 -10q-21 -131 -21 -469v-117q0 -263 12.5 -267t52.5 -4q3 -7 3 -16t-3 -15z" />
    <glyph glyph-name="l" unicode="l" horiz-adv-x="299" 
d="M275 -3l-110 3q-86 0 -149 -8q-5 6 -5 17l1 8q47 9 62.5 27t23 61t7.5 314v256q0 91 -21 111q-11 11 -28 13l-36 4q-3 5 -3 12.5t3 12.5q71 13 110 32q26 13 59 35q10 0 16 -10q-21 -131 -21 -469v-117q0 -263 13 -267q18 -4 78 -4q2 -7 2 -16t-2 -15z" />
    <glyph glyph-name="m" unicode="m" horiz-adv-x="915" 
d="M245 -3l-69 3q-76 0 -132 -8q-5 6 -5 17l1 8q29 7 45 19.5t20.5 24t8 43t3.5 135.5t-0.5 115.5t-1.5 29.5t-4 27t-9 19q-10 19 -34 19l-39 -1q-4 4 -4 15l2 12q68 9 111 28q14 6 17 6q9 0 22 -28t22 -62q106 60 194 90q74 0 100 -92q105 59 200 92q54 0 84.5 -48.5
t30.5 -128.5l-1 -132q0 -167 14.5 -169.5t54.5 -2.5q3 -7 3 -16t-3 -15l-92 3q-69 0 -119 -8q-5 6 -5 17l1 8q34 9 44.5 26.5t15 50t4.5 94.5v74q0 57 -6.5 91.5t-12 45t-13.5 21.5q-15 20 -44 20q-56 0 -148 -64q3 -20 3 -44l-1 -132q0 -167 14.5 -169.5t42.5 -2.5
q3 -7 3 -16t-3 -15l-76 3q-76 0 -132 -8q-5 6 -5 16l1 9q41 9 54.5 27t18 50t4.5 94v74q0 57 -6.5 91.5t-12 45t-13.5 21.5q-15 20 -44 20q-61 0 -148 -64q-4 -79 -4 -211.5t12 -133.5q11 -3 36 -3q4 -8 4 -17t-4 -14z" />
    <glyph glyph-name="n" unicode="n" horiz-adv-x="631" 
d="M68 449l-39 -1q-4 5 -4 13t2 14q68 9 111 28q14 6 17 6q9 0 22 -28t22 -62q101 57 197 90q61 0 94 -48.5t33 -128.5l-2 -132q0 -167 15 -169.5t56 -2.5q4 -7 4 -15t-4 -16l-92 3q-83 0 -132 -8q-5 6 -5 17l1 8q29 7 45 19.5t20.5 24t7.5 35t3 91.5v83q0 70 -16 118
q-7 19 -16 28q-22 24 -53 24t-62 -12t-47 -22t-45 -30q-4 -79 -4 -211.5t13.5 -134.5t50.5 -2q4 -7 4 -15t-4 -16l-85 3q-76 0 -132 -8q-5 6 -5 17l1 8q29 7 45 19.5t20.5 24t8 43t3.5 135.5t-0.5 115.5t-1.5 29.5t-4 27t-9 19q-10 19 -34 19z" />
    <glyph glyph-name="o" unicode="o" 
d="M549 244q0 -222 -258 -264q-106 0 -178.5 75.5t-72.5 188.5q0 224 259 265q105 0 177.5 -77t72.5 -188zM313 23q144 0 144 184q0 104 -48 182t-127 78t-114.5 -50.5t-35.5 -144t49 -171.5t132 -78z" />
    <glyph glyph-name="p" unicode="p" horiz-adv-x="596" 
d="M59 443l-35 -2q-4 7 -4 18l1 9q70 12 104 34l12 7q15 0 34 -25.5t21 -62.5q57 36 83.5 49t92.5 39q73 -14 130.5 -89.5t57.5 -175.5q0 -57 -18 -102.5t-48 -73t-62 -46.5t-66 -28q-58 -14 -86.5 -14t-88.5 15v-56q0 -267 12 -268q30 -3 112 -3q2 -7 2 -16t-2 -15l-144 3
q-86 0 -140 -8q-6 6 -6 17l2 8q41 10 55.5 28t18.5 46q10 70 10 328v244q0 80 -9.5 110t-38.5 30zM187 79q0 -15 57 -35.5t80 -20.5q64 0 106 54t42 137.5t-49 154t-104 70.5t-130 -63q-2 -83 -2 -297z" />
    <glyph glyph-name="q" unicode="q" horiz-adv-x="601" 
d="M465 483q12 5 40 26q8 0 15 -9q-8 -20 -15.5 -82.5t-7.5 -106.5v-236q0 -274 10 -344q4 -28 19.5 -45t56.5 -22q1 -4 1 -12t-5 -13q-55 1 -128 1t-155 -3q-3 6 -3 16t3 15q34 0 109 5q14 3 14 266v132q-54 -33 -86.5 -48.5t-100.5 -42.5q-73 15 -132.5 87.5t-59.5 156
t29.5 140t76.5 86.5q94 59 201 59q11 0 118 -26zM170.5 410q-46.5 -57 -46.5 -141.5t49 -151t107.5 -66.5t138.5 62v288q0 25 -58.5 45.5t-85.5 20.5q-58 0 -104.5 -57z" />
    <glyph glyph-name="r" unicode="r" horiz-adv-x="423" 
d="M67 449l-39 -1q-5 5 -5 15l2 12q68 9 111 28q14 6 17 6q11 0 25 -39.5t17 -78.5q75 78 136 118q40 0 66 -23.5t26 -58.5q0 -40 -71 -40q-15 53 -51 53q-24 0 -100 -83q-6 -76 -6 -242q0 -83 13 -84q23 -3 81 -3q3 -7 3 -16t-3 -15l-112 3q-82 0 -145 -8q-5 6 -5 17l1 8
q53 10 68 31q11 16 16 51.5t5 139.5t-0.5 115t-1.5 29t-4 27t-9 20q-10 19 -35 19z" />
    <glyph glyph-name="s" unicode="s" horiz-adv-x="463" 
d="M319 447q-30 26 -77 26q-97 0 -97 -78q0 -25 18.5 -47.5t45.5 -35.5l78 -37q114 -55 114 -147q0 -68 -54 -108t-128 -40q-39 0 -81.5 7.5t-60.5 15.5q-3 45 -18 125q11 7 18.5 7t10.5 -2q20 -60 35 -77q11 -11 39 -24t66.5 -13t66.5 21t28 63q0 28 -11 42t-18.5 21.5
t-17 13.5t-16 9.5l-13 7t-7.5 3.5l-75 36q-97 46 -97 133q0 71 54 105.5t122 34.5q33 0 74.5 -8.5t62.5 -17.5q-7 -24 -16 -112q-5 -4 -13.5 -4t-16.5 2q-8 50 -16 78z" />
    <glyph glyph-name="t" unicode="t" horiz-adv-x="360" 
d="M187 215q0 -166 57 -166q42 0 109 28q15 -5 15 -28q-73 -39 -168 -69q-47 0 -71.5 48t-24.5 129v232q0 59 -7 59l-74 -1q-7 2 -7 10q5 10 9 36h71q8 0 8 35l-1 85q37 15 76 62q12 0 18 -6q-9 -105 -9 -176q73 0 144 7q7 -4 7 -12q-6 -10 -10 -37l-142 -2v-234z" />
    <glyph glyph-name="u" unicode="u" horiz-adv-x="605" 
d="M489 516q9 -2 15 -12q-9 -68 -9 -224l1 -143q0 -90 45 -90l36 1q4 -7 4 -16l-1 -11q-49 -8 -70 -19l-26 -12q-5 -3 -15 -10q-22 8 -37 35.5t-17 55.5q-85 -53 -195 -91q-64 0 -95.5 47.5t-31.5 129.5v191q0 68 -6 86.5t-35 24.5l-33 4q-3 6 -3 13l3 12q17 3 77 13l71 15
q8 -2 14 -12q-8 -55 -8 -289q0 -164 88 -164q31 0 62.5 11t47.5 21.5t41 29.5q3 66 3 95v121q0 61 -5.5 85t-16 32.5t-28.5 12.5l-33 4l-3 13l3 12q10 2 36.5 5t70.5 12t50 11z" />
    <glyph glyph-name="v" unicode="v" horiz-adv-x="496" 
d="M92 493l84 3q3 -5 3 -15l-3 -16q-31 0 -44 -2q9 -71 47 -155l88 -193l69 185q36 97 45 160q-30 5 -64 5q-2 7 -2 16.5t2 14.5q40 -3 87.5 -3t83.5 6q7 -11 7 -26q-25 -11 -36 -22q-34 -34 -63 -107l-148 -364h-15l-148 348q-41 99 -65 125q-13 16 -40 24q-1 3 -1 11t6 15
q69 -10 107 -10z" />
    <glyph glyph-name="w" unicode="w" horiz-adv-x="795" 
d="M621 496l87 -3q36 0 84 7q7 -13 7 -25q-27 -12 -38 -23q-34 -36 -69 -123l-140 -349h-15l-148 373l-145 -373h-15l-144 351q-45 108 -60.5 123.5t-36.5 22.5q-1 3 -1 11t6 15q69 -10 107 -10l84 3q3 -5 3 -15l-3 -16q-31 0 -44 -2q7 -57 45 -155l74 -191l138 376h27
l144 -376l71 182q35 87 46 161q-20 3 -64 5q-2 7 -2 16.5t2 14.5z" />
    <glyph glyph-name="x" unicode="x" horiz-adv-x="523" 
d="M329 480q0 9 3 13h81q38 0 83 7q7 -8 7 -25q-21 -8 -37 -20t-49 -46t-48 -52l-78 -92l62 -98q65 -103 80.5 -120.5t34.5 -17.5h39q2 -8 2 -14.5t-2 -14.5q-59 0 -89.5 -4.5t-33.5 -4.5q-23 0 -101 137l-48 81l-22 -30q-73 -98 -89 -148q24 -3 60 -3q3 -7 3 -16t-3 -15
q-43 3 -90 3t-79 -5q-7 6 -7 18l1 7q26 7 46 27q36 37 82 98l76 100l-45 79q-47 83 -67.5 111t-40.5 28h-47q-2 12 -2 18.5t1 11.5q42 2 87 9t52 7q5 0 51 -86t70 -126l60 74q41 51 57 89q-16 3 -57 3q-3 8 -3 17z" />
    <glyph glyph-name="y" unicode="y" horiz-adv-x="535" 
d="M97 493l86 3q2 -5 2 -15l-2 -16q-31 0 -44 -2q9 -61 48 -155l97 -240l87 223q44 113 50 168q-36 4 -74 4q-4 6 -4 14t2 16h98q46 0 84 6q8 -13 8 -26q-25 -11 -36 -22q-27 -29 -59 -103l-145 -348q-13 -31 -42 -107.5t-40.5 -106.5t-21.5 -56.5t-23 -55.5
q-27 -62 -43 -62q-5 0 -21 6q-43 15 -97 27q0 20 9 32q36 -6 39 -6q29 0 74.5 67.5t70.5 133.5l36 96l-163 400q-25 63 -46 85q-13 16 -39 24q0 18 5 26q66 -10 104 -10z" />
    <glyph glyph-name="z" unicode="z" horiz-adv-x="501" 
d="M348 -3l-156 3q-103 0 -157 -5q-8 8 -8 20v4q18 18 34 41q160 228 262 397h-84q-104 0 -147 -13l-12 -77q-5 -4 -14 -4t-17 2q-3 30 -11.5 75t-8.5 48q0 9 16 9l186 -4h42q106 0 160 6q7 -8 7 -26q-21 -19 -36 -41l-257 -396h66q53 0 114 9t86 18l27 69q9 3 14 3t17 -6
q-15 -110 -15 -117t-12.5 -11t-95.5 -4z" />
    <glyph glyph-name="braceleft" unicode="{" horiz-adv-x="404" 
d="M167 359q30 -18 52.5 -38.5t29.5 -32.5l7 -12q0 -114 16 -263t35 -166q22 -20 55 -38l11 -6q0 -17 -10 -31l-127 41q-19 100 -37.5 244.5t-24.5 174t-23 66.5t-44 61q28 27 45 64.5t22 63t24 160.5t37 217l124 39q10 -10 10 -28q-44 -26 -64.5 -44.5t-34.5 -154
t-14 -244.5q-21 -33 -89 -73z" />
    <glyph glyph-name="bar" unicode="|" horiz-adv-x="284" 
d="M113 68v772q30 7 54 16q9 0 14 -9q-10 -98 -10 -483v-772q-30 -7 -54 -16q-9 0 -14 9q10 98 10 483z" />
    <glyph glyph-name="braceright" unicode="}" horiz-adv-x="404" 
d="M237 359q-63 38 -82 63l-7 10q0 109 -14 244.5t-33 152.5q-20 18 -55 39l-11 7q0 16 10 28l124 -39q18 -82 37 -217t24 -160.5t22 -63t45 -64.5q-27 -24 -44 -61t-23 -66.5t-24.5 -175.5t-37.5 -243l-127 -41q-10 11 -10 31q42 21 63.5 41t37.5 169t16 263
q6 14 32.5 39.5t56.5 43.5z" />
    <glyph glyph-name="asciitilde" unicode="~" horiz-adv-x="655" 
d="M155 363q-18 0 -34 -5.5t-22 -7.5t-22 -9.5t-22 -9.5q-10 6 -15 25q26 15 62 38.5t56.5 36t29.5 12.5q41 0 142.5 -24t170.5 -24q28 0 99 32q10 -6 15 -26q-26 -15 -61.5 -38t-56 -35.5t-29.5 -12.5q-33 0 -142 24t-171 24z" />
    <glyph glyph-name="exclamdown" unicode="&#xa1;" horiz-adv-x="335" 
d="M199 299l2 -316q0 -168 26 -174l24 -4q2 -4 2 -12l-4 -13q-44 -16 -122 -64q-15 0 -15 9l49 570zM197 509q39 -32 58 -74q-37 -39 -78 -58q-41 39 -54 76q10 14 32.5 31t41.5 25z" />
    <glyph glyph-name="cent" unicode="&#xa2;" horiz-adv-x="464" 
d="M240 -132q-7 0 -12 7l4 108q-92 12 -142 86.5t-50 177.5q0 63 19.5 113t52.5 80q59 55 121 73v102q16 3 38 10q7 0 10 -6q-4 -56 -4 -95q99 0 156 -59q-3 -17 -19.5 -35t-37.5 -23q-42 64 -100 73v-440h11q34 0 61 9t75 34q8 -6 9 -20l-89 -66q-27 -13 -67 -17v-101
q-12 -3 -36 -11zM147 416q-38 -61 -38 -135.5t32 -141.5t92 -90v432q-48 -4 -86 -65z" />
    <glyph glyph-name="sterling" unicode="&#xa3;" horiz-adv-x="483" 
d="M48 -10q-8 6 -8 16v4q39 29 55 81.5t16 153.5q-19 0 -52 -3q-8 3 -8 12q8 17 10 32h50q1 61 26 110.5t58 75.5t59 39.5t37 13.5q33 0 73 -9t61 -18q-8 -27 -16 -110q-8 -6 -14 -6l-14 4q-3 37 -16 76q-7 9 -30 18.5t-57 9.5t-60 -55t-30 -149q97 0 156 7q8 -3 8 -12
q-7 -12 -11 -35h-153v-22q0 -105 -56 -174q36 -2 109 -2t123 18q17 39 33 86q4 1 12.5 1t19.5 -9q-11 -68 -15.5 -103.5t-9.5 -36.5q-24 -6 -108 -6l-92 2h-37q-79 0 -119 -10z" />
    <glyph glyph-name="currency" unicode="&#xa4;" horiz-adv-x="559" 
d="M413 360q38 -44 38 -108t-34 -101l95 -82q-15 -18 -32 -56q-1 -1 -4 -1l-5 1q-21 38 -90 107q-42 -25 -101 -33q-53 0 -93 26l-86 -94q-20 15 -53 32q-1 1 -1 4l1 5q39 21 103 85q-36 44 -36 106.5t29 100.5l-81 76q15 21 33 53q1 2 4 2l5 -2q18 -35 75 -97q37 24 105 36
q49 0 92 -28l75 91q22 -18 55 -31q1 -1 1 -4l-1 -5q-34 -21 -94 -83zM283 136q100 0 100 109q0 55 -25.5 90.5t-74.5 35.5q-102 0 -102 -110q0 -54 27 -89.5t75 -35.5z" />
    <glyph glyph-name="yen" unicode="&#xa5;" horiz-adv-x="577" 
d="M21 509l111 4q8 0 40.5 -36t73 -95t62.5 -111q18 26 54 77q67 95 79 129q-16 3 -65 3q-3 9 -3 14.5t3 17.5l103 -3q40 0 74 6q4 -4 4 -16l-1 -10q-21 -5 -41 -20.5t-58.5 -61.5t-72.5 -95q34 0 115 7q8 -3 8 -12q-3 -5 -11 -36l-140 1q-20 -33 -24 -44t-4 -33q87 0 155 6
q8 -2 8 -12q-3 -4 -11 -36q-81 2 -152 2v-14q0 -55 7 -108q24 -5 76 -5q1 -8 1 -17.5t-1 -13.5l-110 3q-76 0 -138 -8q-4 5 -4 16l1 9q39 6 60.5 17t26.5 20.5t7 26t2 74.5q-85 0 -163 -7q-8 3 -8 12q8 15 11 35h156q-1 10 -5 28.5t-19 47.5q-22 0 -117 -7q-8 3 -8 12
q7 16 10 35h90q-45 69 -110 142q-15 17 -27 22.5t-45 7.5q-1 6 -1 14t1 12z" />
    <glyph glyph-name="brokenbar" unicode="&#xa6;" horiz-adv-x="284" 
d="M171 364v-41l-58 -23v540q30 7 54 16q9 0 14 -9q-10 -98 -10 -483zM167 -324v-68l-54 -23v567q21 5 50 16q9 0 14 -9q-10 -98 -10 -483z" />
    <glyph glyph-name="section" unicode="&#xa7;" horiz-adv-x="635" 
d="M411 695q-60 0 -101 -38t-41 -100q0 -36 22 -72.5t54.5 -66t71 -67.5t71 -75t54.5 -91t22 -114q0 -121 -94.5 -204.5t-224.5 -83.5q-98 0 -177 28q-12 118 -23 184q18 10 29 10t17 -1q4 -21 18 -72.5t18 -61t12 -17t30 -16t51 -8.5q47 0 87.5 42t40.5 110q0 81 -103 182
q-43 42 -86 85.5t-73 99t-30 112.5q0 116 99.5 196t227.5 80q84 0 165 -21q-6 -45 -13 -174q-5 -5 -21.5 -5t-21.5 4q-1 16 -8.5 71t-11.5 69q-21 15 -61 15zM425 4q0 -80 -66 -153q56 23 94 75.5t38 111t-16.5 103t-42.5 77.5t-57.5 63.5t-63 59t-57.5 57.5q-59 64 -59 141
q0 60 48 121q-110 -64 -110 -176q0 -51 30 -103.5t73 -97.5t86 -89t73 -94t30 -96z" />
    <glyph glyph-name="dieresis" unicode="&#xa8;" horiz-adv-x="629" 
d="M199 591q-36 25 -51 66q12 14 32.5 29.5t35.5 21.5q38 -28 49 -67q-28 -36 -66 -50zM415 591q-36 25 -51 66q12 14 32.5 29.5t35.5 21.5q38 -28 49 -67q-28 -36 -66 -50z" />
    <glyph glyph-name="copyright" unicode="&#xa9;" horiz-adv-x="869" 
d="M169.5 89.5q-109.5 110.5 -109.5 268t109.5 268t265.5 110.5t265 -110.5t109 -268t-109 -268t-265 -110.5t-265.5 110.5zM113 357q0 -138 95 -235.5t227 -97.5t226.5 97.5t94.5 235.5t-94.5 236t-226.5 98t-227 -98t-95 -236zM423 548q-46 0 -79 -49.5t-33 -120.5
t35.5 -129t105.5 -58q45 0 128 34q7 -6 7 -17l-84 -60q-7 -3 -11.5 -5t-12 -4t-14.5 -4q-14 -4 -33 -4q-97 0 -148 64t-51 160q0 57 20.5 102t48.5 68.5t62 38.5q50 24 84 24q61 0 139 -24q-6 -24 -15 -112q-12 -3 -16 -3t-11 2q0 3 -14 72q-46 25 -108 25z" />
    <glyph glyph-name="ordfeminine" unicode="&#xaa;" horiz-adv-x="336" 
d="M255 657l-2 -133q0 -39 26 -39l18 2q3 -6 3 -22q-56 -6 -71 -16q-28 9 -32 40q-42 -27 -84 -40q-19 0 -39.5 21t-20.5 52.5t24 45.5q38 19 119 35v52q0 58 -28 58q-9 0 -22 -6q-25 -12 -25 -63q0 -7 -21 -7t-27.5 5t-7.5 10t-1 15q0 20 29 42q7 5 40.5 15.5t38.5 10.5
q42 0 62.5 -23t20.5 -55zM143 488q24 0 53 29v60q-43 -6 -69 -24q-12 -7 -12 -23t8.5 -29t19.5 -13z" />
    <glyph glyph-name="guillemotleft" unicode="&#xab;" horiz-adv-x="515" 
d="M228 241v14q145 121 216 208q9 0 16 -5t11 -15l-139 -195l139 -195q-6 -20 -27 -20q-82 96 -216 208zM33 241v14q57 47 120 107.5t96 100.5q19 0 25 -15l2 -5l-139 -195l139 -195q-5 -20 -27 -20q-81 96 -216 208z" />
    <glyph glyph-name="logicalnot" unicode="&#xac;" horiz-adv-x="537" 
d="M483 348v-52q0 -103 8 -157q-4 -10 -15 -10q-12 5 -53 14v148h-215q-72 0 -159 -8q-9 4 -9 14q5 13 13 51h430z" />
    <glyph glyph-name="registered" unicode="&#xae;" horiz-adv-x="551" 
d="M104.5 323.5q-71.5 71.5 -71.5 176t71 176.5t174.5 72t174.5 -72t71 -176.5t-71 -176t-174 -71.5t-174.5 71.5zM139.5 645.5q-58.5 -61.5 -58.5 -146t58.5 -145.5t139.5 -61t139.5 61t58.5 145.5t-58.5 146t-139.5 61.5t-139.5 -61.5zM277 631q94 0 94 -70q0 -53 -56 -69
q9 -26 18 -43q18 -29 27 -37.5t19 -8.5h16q4 -6 4 -12.5t-2 -9.5q-28 -2 -46 -4t-21 -2t-13.5 21.5t-24 53.5t-16.5 38h-7q-17 0 -28 1v-49q0 -27 2 -37q8 -4 30 -4q2 -6 2 -12.5t-2 -9.5h-102q-3 0 -3 8l1 10q22 6 25 25.5t3 79.5t-0.5 86t-4.5 26q-4 3 -19 3q-1 4 -1 8.5
t1 7.5h104zM323 557q0 51 -47 51q-21 0 -32 -1q-3 -26 -3 -95q4 -1 27 -1t39 12.5t16 33.5z" />
    <glyph glyph-name="macron" unicode="&#xaf;" horiz-adv-x="624" 
d="M161 652q215 0 310 7q9 -4 9 -16q-5 -10 -13 -44q-195 0 -310 -7q-9 4 -9 15q7 18 13 45z" />
    <glyph glyph-name="degree" unicode="&#xb0;" horiz-adv-x="455" 
d="M349.5 691.5q43.5 -44.5 43.5 -113.5t-46.5 -109t-126.5 -50q-68 0 -113.5 43.5t-45.5 112.5t49 110t130 51q66 0 109.5 -44.5zM164 504.5q27 -37.5 70 -37.5t64 26t21 72.5t-25.5 84.5t-70 38t-65.5 -26t-21 -73t27 -84.5z" />
    <glyph glyph-name="plusminus" unicode="&#xb1;" horiz-adv-x="532" 
d="M295 276q0 -81 8 -161q-4 -10 -15 -10q-23 9 -52 14v157q-92 0 -173 -8q-10 4 -10 15q10 23 14 50h169q0 76 -9 167q4 9 16 9q22 -10 52 -13v-163q106 0 188 10q9 -4 9 -16q-9 -18 -13 -51h-184zM264 57q121 0 219 10q9 -4 9 -16q-2 -4 -13 -51h-214q-118 0 -216 -8
q-9 4 -9 15q4 10 13 50h211z" />
    <glyph glyph-name="twosuperior" unicode="&#xb2;" horiz-adv-x="311" 
d="M212 303l-75 1h-117q-5 8 -5 17l102 116q79 91 79 143q0 27 -15 44t-42 17t-67 -10l-9 -56q-4 -3 -12.5 -3t-11.5 3q-8 60 -8 67t6 9l112 32q52 0 85.5 -22.5t33.5 -72.5q0 -25 -14 -49t-53 -70l-98 -117h58q81 0 84 13l14 40q16 0 25 -4q-6 -31 -8 -89q-18 -9 -64 -9z
" />
    <glyph glyph-name="threesuperior" unicode="&#xb3;" horiz-adv-x="289" 
d="M263 429q0 -57 -45 -96.5t-105 -39.5t-106 23q5 29 32 53q62 -42 91 -42t45.5 27t16.5 61q0 64 -100 80l81 132h-56q-28 0 -56 -4l-6 -44q-6 -3 -14 -3t-13 3q-7 82 -7 89.5t6 7.5h134q46 0 83 5q8 -3 8 -13l-89 -133q100 -31 100 -106z" />
    <glyph glyph-name="acute" unicode="&#xb4;" 
d="M387 697l-172 -150q-8 0 -14 4.5t-9 12.5q77 97 139 184q40 -16 56 -51z" />
    <glyph glyph-name="mu" unicode="&#xb5;" horiz-adv-x="608" 
d="M596 51q8 -8 8 -19v-4q-103 -48 -122.5 -48t-38 24.5t-23.5 66.5q-85 -54 -192 -91q-52 0 -79 45q3 -89 24.5 -159t39.5 -89q17 -15 36 -18q3 -11 3 -24q-104 -14 -115 -16q-45 128 -45 518l-4 256l80 16l16 -12q-12 -72 -12 -277q0 -169 95 -169q30 0 61.5 11.5
t46.5 21.5t42 29v167l-1 213l76 16l15 -12q-8 -61 -8 -218v-111q0 -127 36 -127q28 0 61 10z" />
    <glyph glyph-name="paragraph" unicode="&#xb6;" horiz-adv-x="908" 
d="M353 723l68 -3h28q4 -8 4 -18.5t-4 -18.5h-17q-62 0 -93 -77t-31 -189q0 -253 100 -253h41q4 -7 4 -19l-4 -18h-29l-67 -3q-126 0 -199.5 85t-73.5 219t66 214.5t207 80.5zM823 723q2 -7 2 -17.5t-2 -18.5q-29 0 -58 -6q-14 -3 -14 -208v-397q0 -226 -130 -275l-233 -88
q-19 10 -19 32q0 6 2 11l64 31q45 22 67 91q19 57 19 203v639h146zM675 413q0 175 -4 267q-47 0 -70 -3v-609q0 -66 -2 -96q-5 -78 -56 -151l26 12q106 49 106 235v345z" />
    <glyph glyph-name="periodcentered" unicode="&#xb7;" horiz-adv-x="249" 
d="M124 213q-38 31 -57 75q36 40 77 57q41 -39 55 -76q-11 -14 -33.5 -31t-41.5 -25z" />
    <glyph glyph-name="cedilla" unicode="&#xb8;" horiz-adv-x="508" 
d="M232 -116q-5 2 -4 9.5t1 17.5l15 89h40l-7 -68q54 -22 77 -45t23 -62.5t-17 -58.5t-47 -34h-110q-3 4 -3 13l1 12q128 2 128 56q0 25 -23 41.5t-74 29.5z" />
    <glyph glyph-name="onesuperior" unicode="&#xb9;" horiz-adv-x="227" 
d="M141 685q20 -4 26 -14q-12 -44 -12 -171v-165q13 -3 49 -3q3 -7 3 -14t-3 -14h-173q-2 11 -2 24q56 10 59 24q5 20 5 145v114l-65 -16q-11 8 -11 28q65 27 124 62z" />
    <glyph glyph-name="ordmasculine" unicode="&#xba;" horiz-adv-x="388" 
d="M339 592q0 -119 -148 -143q-59 0 -100.5 41.5t-41.5 101.5q0 122 147 144q60 0 101.5 -42t41.5 -102zM203 476q70 0 70 96q0 56 -23.5 96.5t-64.5 40.5q-72 0 -72 -96q0 -55 25 -96t65 -41z" />
    <glyph glyph-name="guillemotright" unicode="&#xbb;" horiz-adv-x="515" 
d="M287 255v-14q-135 -112 -216 -208q-19 0 -25 15l-2 5l139 195l-139 195q5 20 27 20q33 -40 96 -100.5t120 -107.5zM481 255v-14q-134 -112 -216 -208q-9 0 -15.5 5t-10.5 15l138 195l-138 195q5 20 26 20q76 -91 216 -208z" />
    <glyph glyph-name="onequarter" unicode="&#xbc;" horiz-adv-x="624" 
d="M495 725q2 3 7 3t9 -3q4 -5 29 -30l-201 -354q-20 -35 -100 -184t-95 -182q-2 -3 -7 -3t-8 3q-11 13 -33 30l207 363q136 243 192 357zM141 685q20 -4 26 -14q-12 -44 -12 -171v-165q13 -3 49 -3q3 -7 3 -14t-3 -14h-173q-2 11 -2 24q56 10 59 24q5 20 5 145v114l-65 -16
q-11 8 -11 28q65 27 124 62zM476 135v141l-93 -141h93zM536 233v-98q25 0 32 18l11 27q13 0 21 -7q-4 -18 -8 -72q-16 -8 -56 -8v-62q13 -3 41 -3q3 -7 3 -14t-3 -14h-154q-3 7 -3 24q50 7 53 21q3 9 3 48l-91 2q-34 0 -70 -4q-7 6 -7 17q27 28 35 39l174 246q13 0 26 -9
q-7 -43 -7 -151z" />
    <glyph glyph-name="onehalf" unicode="&#xbd;" horiz-adv-x="688" 
d="M495 725q2 3 7 3t9 -3q4 -5 29 -30l-201 -354q-20 -35 -100 -184t-95 -182q-2 -3 -7 -3t-8 3q-11 13 -33 30l207 363q136 243 192 357zM141 685q20 -4 26 -14q-12 -44 -12 -171v-165q13 -3 49 -3q3 -7 3 -14t-3 -14h-173q-2 11 -2 24q56 10 59 24q5 20 5 145v114l-65 -16
q-11 8 -11 28q65 27 124 62zM589 -1l-74 1h-118q-5 8 -5 17l103 116q78 88 78 143q0 27 -15 44t-42 17t-67 -10l-9 -56q-4 -3 -12 -3t-12 3q-8 60 -8 67t7 9l112 32q51 0 84.5 -22.5t33.5 -72.5q0 -26 -14.5 -50.5t-51.5 -68.5l-99 -117h59q80 0 84 13l13 40q16 0 25 -4
q-3 -19 -8 -89q-18 -9 -64 -9z" />
    <glyph glyph-name="threequarters" unicode="&#xbe;" horiz-adv-x="649" 
d="M520 725q3 3 7.5 3t8.5 -3q4 -5 29 -30l-201 -354q-16 -28 -98 -180t-97 -186q-1 -3 -6.5 -3t-9.5 5t-17 15.5t-15 12.5l207 363q116 204 192 357zM263 429q0 -57 -45 -96.5t-105 -39.5t-106 23q5 29 32 53q62 -42 91 -42t45.5 27t16.5 61q0 64 -100 80l81 132h-56
q-28 0 -56 -4l-6 -44q-6 -3 -14 -3t-13 3q-7 82 -7 89.5t6 7.5h134q46 0 83 5q8 -3 8 -13l-89 -133q100 -31 100 -106zM501 135v141l-93 -141h93zM625 173q-8 -36 -8 -72q-16 -8 -56 -8v-62q14 -3 42 -3q2 -7 2 -14t-2 -14h-155q-3 7 -3 24q50 7 54 21q2 12 2 48l-90 2
q-35 0 -71 -4q-7 7 -7 17q27 28 35 39l175 246q13 0 25 -9q-7 -43 -7 -151v-98q25 0 32 18l11 27q14 0 21 -7z" />
    <glyph glyph-name="questiondown" unicode="&#xbf;" horiz-adv-x="416" 
d="M288 509q37 -31 57 -74q-35 -39 -77 -58q-40 38 -55 76q11 14 33.5 31.5t41.5 24.5zM324 -323q-2 0 -16 4q0 24 -5 36q-21 15 -63.5 29.5t-56.5 21.5q-130 63 -130 204q0 23 4 48q29 68 65.5 101t102.5 48q6 17 23 124q7 4 17 4t22 -2q6 -91 14 -141q3 -18 3 -23
q-1 -3 -17 -10q-67 -11 -121.5 -34.5t-61.5 -57.5q-5 -20 -5 -44q0 -54 38.5 -91.5t138.5 -61.5q20 -5 29.5 -8t21 -7t16.5 -8t5 -9.5t-4.5 -44t-4.5 -75.5z" />
    <glyph glyph-name="Agrave" unicode="&#xc0;" horiz-adv-x="747" 
d="M448 771l-192 124q10 34 48 58q64 -68 139 -139l25 -23q-3 -19 -20 -20zM749 -3l-117 3q-76 0 -133 -8q-6 8 -6 17l2 8q39 9 54.5 20.5t15.5 25.5t-14 56l-59 150q-54 3 -129 3l-143 -3l-25 -64q-50 -124 -50 -176q23 -1 70 -1q2 -7 2 -16t-2 -15l-106 3q-63 0 -110 -8
q-6 7 -6 17l2 8q51 14 74.5 44t70.5 136l247 560h16l230 -588q6 -19 31.5 -73.5t32.5 -64.5q28 -3 52 -3q3 -7 3 -16t-3 -15zM235 308l128 -4q69 0 116 3l-116 306z" />
    <glyph glyph-name="Aacute" unicode="&#xc1;" horiz-adv-x="747" 
d="M535 895l-192 -124q-8 0 -13 5t-7 15q90 85 164 162q38 -24 48 -58zM749 -3l-117 3q-76 0 -133 -8q-6 8 -6 17l2 8q39 9 54.5 20.5t15.5 25.5t-14 56l-59 150q-54 3 -129 3l-143 -3l-25 -64q-50 -124 -50 -176q23 -1 70 -1q2 -7 2 -16t-2 -15l-106 3q-63 0 -110 -8
q-6 7 -6 17l2 8q51 14 74.5 44t70.5 136l247 560h16l230 -588q6 -19 31.5 -73.5t32.5 -64.5q28 -3 52 -3q3 -7 3 -16t-3 -15zM235 308l128 -4q69 0 116 3l-116 306z" />
    <glyph glyph-name="Acircumflex" unicode="&#xc2;" horiz-adv-x="747" 
d="M544 761l-149 96l-151 -96q-8 1 -13 6t-7 14q91 86 164 163h12q72 -77 139 -140l25 -23q-3 -18 -20 -20zM749 -3l-117 3q-76 0 -133 -8q-6 8 -6 17l2 8q39 9 54.5 20.5t15.5 25.5t-14 56l-59 150q-54 3 -129 3l-143 -3l-25 -64q-50 -124 -50 -176q23 -1 70 -1q2 -7 2 -16
t-2 -15l-106 3q-63 0 -110 -8q-6 7 -6 17l2 8q51 14 74.5 44t70.5 136l247 560h16l230 -588q6 -19 31.5 -73.5t32.5 -64.5q28 -3 52 -3q3 -7 3 -16t-3 -15zM235 308l128 -4q69 0 116 3l-116 306z" />
    <glyph glyph-name="Atilde" unicode="&#xc3;" horiz-adv-x="747" 
d="M749 -3l-117 3q-76 0 -133 -8q-6 8 -6 17l2 8q39 9 54.5 20.5t15.5 25.5t-14 56l-59 150q-54 3 -129 3l-143 -3l-25 -64q-50 -124 -50 -176q23 -1 70 -1q2 -7 2 -16t-2 -15l-106 3q-63 0 -110 -8q-6 7 -6 17l2 8q51 14 74.5 44t70.5 136l247 560h16l230 -588
q6 -19 31.5 -73.5t32.5 -64.5q28 -3 52 -3q3 -7 3 -16t-3 -15zM235 308l128 -4q69 0 116 3l-116 306zM476 815q-28 0 -77.5 15t-76.5 15t-67 -28q-10 6 -16 20q16 13 34 28.5t23 19.5q28 23 49.5 23t67.5 -15.5t79 -15.5q18 0 61 30q13 -5 18 -23q-9 -6 -34 -27
q-46 -42 -61 -42z" />
    <glyph glyph-name="Adieresis" unicode="&#xc4;" horiz-adv-x="747" 
d="M749 -3l-117 3q-76 0 -133 -8q-6 8 -6 17l2 8q39 9 54.5 20.5t15.5 25.5t-14 56l-59 150q-54 3 -129 3l-143 -3l-25 -64q-50 -124 -50 -176q23 -1 70 -1q2 -7 2 -16t-2 -15l-106 3q-63 0 -110 -8q-6 7 -6 17l2 8q51 14 74.5 44t70.5 136l247 560h16l230 -588
q6 -19 31.5 -73.5t32.5 -64.5q28 -3 52 -3q3 -7 3 -16t-3 -15zM235 308l128 -4q69 0 116 3l-116 306zM277 803q-34 24 -50 66q12 14 32.5 29.5t35.5 21.5q37 -28 49 -67q-28 -36 -67 -50zM493 803q-34 24 -50 66q12 14 32.5 29.5t35.5 21.5q37 -28 49 -67q-28 -36 -67 -50z
" />
    <glyph glyph-name="Aring" unicode="&#xc5;" horiz-adv-x="747" 
d="M749 -3l-117 3q-76 0 -133 -8q-6 8 -6 17l2 8q39 9 54.5 20.5t15.5 25.5t-14 56l-59 150q-54 3 -129 3l-143 -3l-25 -64q-50 -124 -50 -176q23 -1 70 -1q2 -7 2 -16t-2 -15l-106 3q-63 0 -110 -8q-6 7 -6 17l2 8q51 14 74.5 44t70.5 136l247 560h16l230 -588
q6 -19 31.5 -73.5t32.5 -64.5q28 -3 52 -3q3 -7 3 -16t-3 -15zM235 308l128 -4q69 0 116 3l-116 306zM495 879q0 -85 -107 -100q-43 0 -73 29t-30 71q0 83 108 100q43 0 72.5 -29.5t29.5 -70.5zM397 809q44 0 44 56q0 33 -15.5 58t-41.5 25q-45 0 -45 -56q0 -33 16 -58
t42 -25z" />
    <glyph glyph-name="AE" unicode="&#xc6;" horiz-adv-x="1043" 
d="M223 -3l-111 3q-63 0 -113 -8q-6 11 -6 16l2 9q52 14 80.5 44t91.5 136l296 494q-16 4 -58 4q-2 5 -2 12.5t2 15.5l152 -3h152l236 7q18 0 18 -11q0 -1 -3 -24q-11 -72 -15 -139q-12 -6 -21.5 -6t-16.5 4q-16 100 -19 113q-91 21 -163.5 21t-100.5 -4q-2 -8 -7 -65
q-5 -100 -5 -220q16 -4 85.5 -4t103 4t49.5 16t23 49q23 0 31 -6q-9 -51 -9 -84l1 -87q-6 -5 -17 -5l-15 2l-11 66q-54 9 -126.5 9t-114.5 -5v-179q0 -95 7 -132q29 -4 70 -4q103 0 204 27q16 23 29.5 61.5t16.5 46.5q5 1 15 1t22 -9q-14 -72 -21 -147q-3 -12 -14 -13
q-42 -7 -117 -7l-220 4q-126 0 -171 -8q-5 6 -5 17l1 8q35 7 54.5 22.5t24.5 29.5q15 43 17 200q-32 2 -116 2l-144 -2l-34 -64q-71 -131 -78 -176q23 -1 70 -1q2 -7 2 -13t-2 -18zM287 308q108 -3 158.5 -3t81.5 2v42q0 176 -2.5 253.5t-17.5 77.5q-4 0 -7 -4z" />
    <glyph glyph-name="Ccedilla" unicode="&#xc7;" horiz-adv-x="760" 
d="M368 -116q-5 2 -4 9.5t1 17.5l12 74q-144 20 -226 123t-82 244q0 169 108.5 276.5t275.5 107.5q133 0 236 -33q6 -3 6 -7.5t-4 -31.5q-12 -82 -14 -136q-15 -3 -21.5 -3t-16.5 4q-11 74 -19 103q-64 68 -179 68t-189.5 -80t-74.5 -225.5t77 -260t199 -114.5q97 0 166 48
q18 29 30 64t16 43q24 0 38 -10q-15 -71 -22 -145q-1 -11 -13 -13q-94 -27 -228 -27q-15 0 -23 1l-4 -49q54 -22 77 -45t23 -62.5t-17 -58.5t-47 -34h-110q-3 4 -3 13l1 12q128 2 128 56q0 25 -23 41.5t-74 29.5z" />
    <glyph glyph-name="Egrave" unicode="&#xc8;" horiz-adv-x="688" 
d="M421 771l-192 124q10 34 48 58q66 -68 139 -139l25 -23q-2 -19 -20 -20zM455 -4l-171 4h-53q-116 0 -167 -8q-5 6 -5 17l1 8q52 12 68 37q13 20 17 50q12 91 12 248q0 329 -18 335q-19 5 -66 5q-2 7 -2 16t2 15l152 -3h115l236 7q17 0 17 -11q0 -1 -3 -24
q-10 -62 -14 -139q-12 -6 -21.5 -6t-17.5 4q-12 91 -18 113q-91 21 -163.5 21t-100.5 -4q-12 -64 -12 -285q16 -4 85 -4t103 4t49.5 16t23.5 49q21 0 31 -6q-10 -57 -10 -84l2 -87q-7 -5 -18 -5l-14 2l-11 66q-54 9 -126 9t-115 -5v-179q0 -94 6 -132q31 -4 71 -4
q103 0 204 27q15 24 29 62.5t16 45.5q6 1 16 1t22 -9q-15 -71 -22 -147q-1 -12 -13 -13q-44 -7 -117 -7z" />
    <glyph glyph-name="Eacute" unicode="&#xc9;" horiz-adv-x="688" 
d="M467 895l-192 -124q-8 0 -13 5t-7 15q90 85 164 162q38 -24 48 -58zM455 -4l-171 4h-53q-116 0 -167 -8q-5 6 -5 17l1 8q52 12 68 37q13 20 17 50q12 91 12 248q0 329 -18 335q-19 5 -66 5q-2 7 -2 16t2 15l152 -3h115l236 7q17 0 17 -11q0 -1 -3 -24q-10 -62 -14 -139
q-12 -6 -21.5 -6t-17.5 4q-12 91 -18 113q-91 21 -163.5 21t-100.5 -4q-12 -64 -12 -285q16 -4 85 -4t103 4t49.5 16t23.5 49q21 0 31 -6q-10 -57 -10 -84l2 -87q-7 -5 -18 -5l-14 2l-11 66q-54 9 -126 9t-115 -5v-179q0 -94 6 -132q31 -4 71 -4q103 0 204 27q15 24 29 62.5
t16 45.5q6 1 16 1t22 -9q-15 -71 -22 -147q-1 -12 -13 -13q-44 -7 -117 -7z" />
    <glyph glyph-name="Ecircumflex" unicode="&#xca;" horiz-adv-x="688" 
d="M507 761l-150 96l-150 -96q-8 1 -13 6t-7 14q90 86 164 163h12q72 -77 139 -140l25 -23q-3 -18 -20 -20zM455 -4l-171 4h-53q-116 0 -167 -8q-5 6 -5 17l1 8q52 12 68 37q13 20 17 50q12 91 12 248q0 329 -18 335q-19 5 -66 5q-2 7 -2 16t2 15l152 -3h115l236 7
q17 0 17 -11q0 -1 -3 -24q-10 -62 -14 -139q-12 -6 -21.5 -6t-17.5 4q-12 91 -18 113q-91 21 -163.5 21t-100.5 -4q-12 -64 -12 -285q16 -4 85 -4t103 4t49.5 16t23.5 49q21 0 31 -6q-10 -57 -10 -84l2 -87q-7 -5 -18 -5l-14 2l-11 66q-54 9 -126 9t-115 -5v-179
q0 -94 6 -132q31 -4 71 -4q103 0 204 27q15 24 29 62.5t16 45.5q6 1 16 1t22 -9q-15 -71 -22 -147q-1 -12 -13 -13q-44 -7 -117 -7z" />
    <glyph glyph-name="Edieresis" unicode="&#xcb;" horiz-adv-x="688" 
d="M455 -4l-171 4h-53q-116 0 -167 -8q-5 6 -5 17l1 8q52 12 68 37q13 20 17 50q12 91 12 248q0 329 -18 335q-19 5 -66 5q-2 7 -2 16t2 15l152 -3h115l236 7q17 0 17 -11q0 -1 -3 -24q-10 -62 -14 -139q-12 -6 -21.5 -6t-17.5 4q-12 91 -18 113q-91 21 -163.5 21t-100.5 -4
q-12 -64 -12 -285q16 -4 85 -4t103 4t49.5 16t23.5 49q21 0 31 -6q-10 -57 -10 -84l2 -87q-7 -5 -18 -5l-14 2l-11 66q-54 9 -126 9t-115 -5v-179q0 -94 6 -132q31 -4 71 -4q103 0 204 27q15 24 29 62.5t16 45.5q6 1 16 1t22 -9q-15 -71 -22 -147q-1 -12 -13 -13
q-44 -7 -117 -7zM236 803q-33 24 -51 66q12 14 32.5 29.5t35.5 21.5q38 -28 50 -67q-31 -37 -67 -50zM452 803q-33 24 -51 66q12 14 32.5 29.5t35.5 21.5q38 -28 50 -67q-31 -37 -67 -50z" />
    <glyph glyph-name="Igrave" unicode="&#xcc;" horiz-adv-x="356" 
d="M259 771l-192 124q8 35 48 58q64 -68 139 -139l25 -23q-3 -19 -20 -20zM307 723q2 -6 2 -15t-2 -16q-44 0 -67 -3q-17 -2 -17 -225v-163q0 -95 4.5 -182t11.5 -88q26 -3 88 -3l2 -16q0 -9 -2 -15l-127 3q-105 0 -172 -8q-5 5 -5 13t1 12q65 14 80 33q9 12 12 21t5 28
q12 78 12 253v112q0 223 -17 225q-23 3 -67 3l-2 16q0 9 2 15l130 -3z" />
    <glyph glyph-name="Iacute" unicode="&#xcd;" horiz-adv-x="356" 
d="M335 895l-192 -124q-8 0 -13 5t-7 15q90 85 164 162q38 -24 48 -58zM49 723l130 -3l128 3q2 -6 2 -15l-2 -16q-44 0 -67 -3q-17 -2 -17 -225v-163q0 -95 4.5 -182t11.5 -88q26 -3 88 -3q2 -7 2 -16t-2 -15l-127 3q-105 0 -172 -8q-5 5 -5 17l1 8q65 14 80 33q9 12 12 21
t5 28q12 78 12 253v112q0 223 -17 225q-23 3 -67 3q-2 7 -2 16t2 15z" />
    <glyph glyph-name="Icircumflex" unicode="&#xce;" horiz-adv-x="356" 
d="M347 761l-150 96l-150 -96q-8 1 -13 6t-7 14q90 86 164 163h12q72 -77 139 -140l25 -23q-3 -18 -20 -20zM307 723q2 -6 2 -15t-2 -16q-44 0 -67 -3q-17 -2 -17 -225v-163q0 -95 4.5 -182t11.5 -88q26 -3 88 -3l2 -16q0 -9 -2 -15l-127 3q-105 0 -172 -8q-5 5 -5 13t1 12
q65 14 80 33q9 12 12 21t5 28q12 78 12 253v112q0 223 -17 225q-23 3 -67 3l-2 16q0 9 2 15l130 -3z" />
    <glyph glyph-name="Idieresis" unicode="&#xcf;" horiz-adv-x="356" 
d="M307 723q2 -6 2 -15t-2 -16q-44 0 -67 -3q-17 -2 -17 -225v-163q0 -95 4.5 -182t11.5 -88q26 -3 88 -3l2 -16q0 -9 -2 -15l-127 3q-105 0 -172 -8q-5 5 -5 13t1 12q65 14 80 33q9 12 12 21t5 28q12 78 12 253v112q0 223 -17 225q-23 3 -67 3l-2 16q0 9 2 15l130 -3z
M61 803q-34 24 -50 66q12 14 32.5 29.5t35.5 21.5q37 -28 49 -67q-28 -36 -67 -50zM277 803q-34 24 -50 66q12 14 32.5 29.5t35.5 21.5q37 -28 49 -67q-28 -36 -67 -50z" />
    <glyph glyph-name="Eth" unicode="&#xd0;" horiz-adv-x="848" 
d="M400 -4l-148 4q-136 0 -203 -8q-5 6 -5 16l1 9q70 14 87 39q9 14 11 22q10 42 14 255q-18 0 -70 -4q-10 4 -10 15q11 18 14 40h66v84q0 213 -17 219q-29 5 -69 5q-3 7 -3 16t3 15l112 -3h96l121 4q187 0 285.5 -100.5t98.5 -259t-108 -263.5t-276 -105zM332 685
q-48 0 -75 -4q-12 -44 -12 -194v-103h28q107 0 188 8q10 -4 10 -16q-11 -18 -14 -40h-212v-164q0 -89 4 -119q67 -17 140 -17q146 0 216.5 80.5t70.5 230.5q0 136 -78 233q-40 48 -108.5 76.5t-157.5 28.5z" />
    <glyph glyph-name="Ntilde" unicode="&#xd1;" horiz-adv-x="860" 
d="M264 -3l-113 3q-69 0 -116 -8q-6 8 -6 17l2 8q52 12 69 37q13 20 17 50q18 130 23 549q-25 27 -44 35t-61 11q-3 6 -3 15.5t3 14.5l164 4q30 0 202 -206q98 -116 287 -370q-3 78 -6.5 278.5t-12.5 253.5q-22 3 -81 3q-4 8 -4 16.5t3 14.5l113 -3q69 0 116 8q5 -6 5 -17
l-1 -8q-49 -11 -65 -31t-19 -56q-13 -208 -13 -631l-24 -10l-22 28q-191 252 -374 478q-72 88 -131 142q0 -135 0.5 -321t12.5 -271q23 -3 79 -3q3 -8 3 -16t-3 -15zM509 815q-28 0 -77 15t-77 15t-67 -28q-10 7 -16 20q29 23 58 47t49.5 24t66.5 -15.5t79 -15.5q19 0 62 30
q12 -4 17 -23q-12 -7 -46.5 -38t-48.5 -31z" />
    <glyph glyph-name="Ograve" unicode="&#xd2;" horiz-adv-x="843" 
d="M511 771l-192 124q8 35 48 58q64 -68 139 -139l25 -23q-3 -19 -20 -20zM779 357q0 -70 -19.5 -128.5t-49 -96t-68.5 -67t-74.5 -45t-71.5 -25.5q-53 -15 -80 -15q-146 0 -249 108.5t-103 268.5q0 70 19.5 128.5t49 96.5t68.5 67.5t75 45.5t71 26q52 15 81 15
q145 0 248 -110.5t103 -268.5zM447 32q113 0 171.5 76.5t58.5 196.5q0 93 -33.5 179t-98.5 143.5t-146 57.5q-113 0 -173.5 -78.5t-60.5 -194.5q0 -93 34.5 -179.5t100.5 -143.5t147 -57z" />
    <glyph glyph-name="Oacute" unicode="&#xd3;" horiz-adv-x="843" 
d="M545 895l-192 -124q-8 0 -13 5t-7 15q91 85 164 162q40 -23 48 -58zM779 357q0 -70 -19.5 -128.5t-49 -96t-68.5 -67t-74.5 -45t-71.5 -25.5q-53 -15 -80 -15q-146 0 -249 108.5t-103 268.5q0 70 19.5 128.5t49 96.5t68.5 67.5t75 45.5t71 26q52 15 81 15
q145 0 248 -110.5t103 -268.5zM447 32q113 0 171.5 76.5t58.5 196.5q0 93 -33.5 179t-98.5 143.5t-146 57.5q-113 0 -173.5 -78.5t-60.5 -194.5q0 -93 34.5 -179.5t100.5 -143.5t147 -57z" />
    <glyph glyph-name="Ocircumflex" unicode="&#xd4;" horiz-adv-x="843" 
d="M571 761l-150 96l-150 -96q-8 1 -13 6t-7 14q90 86 164 163h12q72 -77 139 -140l25 -23q-3 -18 -20 -20zM779 357q0 -70 -19.5 -128.5t-49 -96t-68.5 -67t-74.5 -45t-71.5 -25.5q-53 -15 -80 -15q-146 0 -249 108.5t-103 268.5q0 70 19.5 128.5t49 96.5t68.5 67.5
t75 45.5t71 26q52 15 81 15q145 0 248 -110.5t103 -268.5zM447 32q113 0 171.5 76.5t58.5 196.5q0 93 -33.5 179t-98.5 143.5t-146 57.5q-113 0 -173.5 -78.5t-60.5 -194.5q0 -93 34.5 -179.5t100.5 -143.5t147 -57z" />
    <glyph glyph-name="Otilde" unicode="&#xd5;" horiz-adv-x="843" 
d="M779 357q0 -70 -19.5 -128.5t-49 -96t-68.5 -67t-74.5 -45t-71.5 -25.5q-53 -15 -80 -15q-146 0 -249 108.5t-103 268.5q0 70 19.5 128.5t49 96.5t68.5 67.5t75 45.5t71 26q52 15 81 15q145 0 248 -110.5t103 -268.5zM447 32q113 0 171.5 76.5t58.5 196.5q0 93 -33.5 179
t-98.5 143.5t-146 57.5q-113 0 -173.5 -78.5t-60.5 -194.5q0 -93 34.5 -179.5t100.5 -143.5t147 -57zM496 813q-28 0 -77.5 15.5t-74 15.5t-69.5 -28q-11 6 -16 20q16 13 34 28.5t23 19.5q28 23 49.5 23t67.5 -15.5t65.5 -15.5t25.5 1.5t13.5 5.5t11 6t13 8.5t11.5 7.5
q12 -3 18 -22q-20 -15 -34 -27q-47 -43 -61 -43z" />
    <glyph glyph-name="Odieresis" unicode="&#xd6;" horiz-adv-x="843" 
d="M779 357q0 -70 -19.5 -128.5t-49 -96t-68.5 -67t-74.5 -45t-71.5 -25.5q-53 -15 -80 -15q-146 0 -249 108.5t-103 268.5q0 70 19.5 128.5t49 96.5t68.5 67.5t75 45.5t71 26q52 15 81 15q145 0 248 -110.5t103 -268.5zM447 32q113 0 171.5 76.5t58.5 196.5q0 93 -33.5 179
t-98.5 143.5t-146 57.5q-113 0 -173.5 -78.5t-60.5 -194.5q0 -93 34.5 -179.5t100.5 -143.5t147 -57zM305 803q-34 24 -50 66q12 14 32.5 29.5t35.5 21.5q37 -28 49 -67q-28 -36 -67 -50zM521 803q-34 24 -50 66q12 14 32.5 29.5t35.5 21.5q37 -28 49 -67q-28 -36 -67 -50z
" />
    <glyph glyph-name="multiply" unicode="&#xd7;" horiz-adv-x="459" 
d="M412 103q0 -11 -4 -16q-12 -7 -40 -28l-139 145q-83 -68 -149 -136q-9 0 -15 7q-3 9 -25 41l151 128q-71 73 -143 133q0 10 4 15q12 7 40 28l137 -143q82 71 150 142q9 0 14 -7q2 -6 26 -41l-151 -132q71 -73 144 -136z" />
    <glyph glyph-name="Oslash" unicode="&#xd8;" horiz-adv-x="843" 
d="M741 529.5q38 -79.5 38 -161t-19.5 -140t-49 -96t-68.5 -67t-74.5 -45t-71.5 -25.5q-53 -15 -80 -15q-87 0 -164 41q-20 -33 -52 -104q-3 -2 -7.5 -2t-9.5 4q-20 26 -32 38l56 95q-67 51 -105 130.5t-38 162t19.5 141t49 96.5t68.5 67.5t75 45.5t71 26q52 15 81 15
q83 0 161 -43q36 63 54 106q4 1 8.5 1t8.5 -3q5 -8 17.5 -22.5t15.5 -18.5l-57 -93q67 -54 105 -133.5zM399 685q-113 0 -173.5 -78.5t-60.5 -194.5q0 -159 91 -279l295 490q-70 62 -152 62zM447 32q113 0 171.5 76.5t58.5 196.5q0 75 -23.5 148t-65.5 128l-295 -488
q69 -61 154 -61z" />
    <glyph glyph-name="Ugrave" unicode="&#xd9;" horiz-adv-x="829" 
d="M548 771l-192 124q10 34 48 58q64 -68 139 -139l25 -23q-3 -19 -20 -20zM49 723l96 -3q106 0 160 8q6 -8 6 -17l-2 -8q-53 -12 -67 -31q-11 -14 -15 -44q-12 -117 -12 -332q0 -129 52 -201t162 -72q131 0 181.5 70.5t50.5 215.5v124q0 182 -10 256q-23 3 -86 3
q-2 8 -2 17.5t2 13.5l118 -3q76 0 117 8q5 -6 5 -17l-1 -8q-77 -17 -84 -104q-11 -129 -11 -315q0 -147 -72.5 -225.5t-215.5 -78.5q-76 0 -132.5 19t-88 48t-50.5 71t-24.5 79.5t-5.5 81.5v153q0 81 -9 257q-19 3 -62 3q-2 7 -2 16t2 15z" />
    <glyph glyph-name="Uacute" unicode="&#xda;" horiz-adv-x="829" 
d="M567 895l-192 -124q-8 0 -13 5t-7 15q90 85 164 162q38 -24 48 -58zM49 723l96 -3q106 0 160 8q6 -8 6 -17l-2 -8q-53 -12 -67 -31q-11 -14 -15 -44q-12 -117 -12 -332q0 -129 52 -201t162 -72q131 0 181.5 70.5t50.5 215.5v124q0 182 -10 256q-23 3 -86 3q-2 8 -2 17.5
t2 13.5l118 -3q76 0 117 8q5 -6 5 -17l-1 -8q-77 -17 -84 -104q-11 -129 -11 -315q0 -147 -72.5 -225.5t-215.5 -78.5q-76 0 -132.5 19t-88 48t-50.5 71t-24.5 79.5t-5.5 81.5v153q0 81 -9 257q-19 3 -62 3q-2 7 -2 16t2 15z" />
    <glyph glyph-name="Ucircumflex" unicode="&#xdb;" horiz-adv-x="829" 
d="M605 761l-149 96l-151 -96q-8 1 -13 6t-7 14q91 86 164 163h12q80 -82 139 -140l25 -23q-2 -18 -20 -20zM49 723l96 -3q106 0 160 8q6 -8 6 -17l-2 -8q-53 -12 -67 -31q-11 -14 -15 -44q-12 -117 -12 -332q0 -129 52 -201t162 -72q131 0 181.5 70.5t50.5 215.5v124
q0 182 -10 256q-23 3 -86 3q-2 8 -2 17.5t2 13.5l118 -3q76 0 117 8q5 -6 5 -17l-1 -8q-77 -17 -84 -104q-11 -129 -11 -315q0 -147 -72.5 -225.5t-215.5 -78.5q-76 0 -132.5 19t-88 48t-50.5 71t-24.5 79.5t-5.5 81.5v153q0 81 -9 257q-19 3 -62 3q-2 7 -2 16t2 15z" />
    <glyph glyph-name="Udieresis" unicode="&#xdc;" horiz-adv-x="829" 
d="M49 723l96 -3q106 0 160 8q6 -8 6 -17l-2 -8q-53 -12 -67 -31q-11 -14 -15 -44q-12 -117 -12 -332q0 -129 52 -201t162 -72q131 0 181.5 70.5t50.5 215.5v124q0 182 -10 256q-23 3 -86 3q-2 8 -2 17.5t2 13.5l118 -3q76 0 117 8q5 -6 5 -17l-1 -8q-77 -17 -84 -104
q-11 -129 -11 -315q0 -147 -72.5 -225.5t-215.5 -78.5q-76 0 -132.5 19t-88 48t-50.5 71t-24.5 79.5t-5.5 81.5v153q0 81 -9 257q-19 3 -62 3q-2 7 -2 16t2 15zM325 803q-34 24 -50 66q12 14 32.5 29.5t35.5 21.5q37 -28 49 -67q-28 -36 -67 -50zM541 803q-34 24 -50 66
q12 14 32.5 29.5t35.5 21.5q37 -28 49 -67q-28 -36 -67 -50z" />
    <glyph glyph-name="Yacute" unicode="&#xdd;" horiz-adv-x="723" 
d="M485 895l-192 -124q-8 0 -13 5t-7 15q91 85 164 162q40 -23 48 -58zM3 729l162 4q10 0 51.5 -55t94 -148.5t80.5 -177.5q15 26 45 77.5t45.5 79t35.5 65.5q37 68 47 114q-21 4 -81 4q-3 7 -3 16t3 15q66 -3 127 -3t107 8q6 -10 6 -17l-2 -8q-27 -8 -62 -34
q-45 -32 -134 -169t-102 -187q-8 -21 -8 -115.5t10 -162.5q41 -7 115 -7q3 -7 3 -16l-3 -15l-159 3q-116 0 -192 -8q-5 6 -5 17l1 8q96 15 117 45t21 112t-13.5 137t-81 169.5t-123.5 174.5q-22 25 -41.5 33.5t-60.5 10.5q-3 6 -3 16.5t3 13.5z" />
    <glyph glyph-name="Thorn" unicode="&#xde;" horiz-adv-x="628" 
d="M69 723l130 -3l128 3q2 -6 2 -15l-2 -16q-44 0 -67 -3q-10 -1 -16 -101h103q114 0 177.5 -59t63.5 -164.5t-68.5 -159.5t-176.5 -54q-39 0 -63 1q-5 6 -5 17l5 20q17 -1 59 -1q67 0 114 45t47 111q0 94 -45 151t-132 57q-52 0 -80 -3v-248q0 -95 4.5 -182t11.5 -88
q34 -3 114 -3q3 -7 3 -16t-3 -15l-153 3q-96 0 -159 -8q-5 5 -5 17l1 8q45 13 62.5 31.5t21.5 50.5q12 78 12 253v112q0 223 -17 225q-23 3 -67 3q-2 7 -2 16t2 15z" />
    <glyph glyph-name="germandbls" unicode="&#xdf;" horiz-adv-x="669" 
d="M372 856q70 0 128.5 -46.5t58.5 -105t-20 -97t-48.5 -61.5t-56.5 -42q-69 -47 -69 -109q0 -25 18.5 -47.5t45.5 -35.5l78 -37q114 -55 114 -147q0 -68 -54 -108t-128 -40q-39 0 -81.5 7.5t-60.5 15.5q-3 45 -18 125q11 7 18.5 7t10.5 -2q20 -60 35 -77q11 -11 39 -24
t66.5 -13t66.5 21t28 63q0 28 -11 42t-18.5 21.5t-17 13.5t-16 9.5l-13 7t-7.5 3.5l-75 36q-97 46 -97 133q0 34 15 63t37 47t48 38.5t48 38t37 44.5t15 59q0 56 -53 105t-110 49q-35 0 -70 -57q-54 -87 -54 -263v-194q0 -192 12 -299q-113 0 -184 -8q-5 6 -5 17l1 8
q65 13 78 51q16 45 16 347v33l-99 -1q-7 4 -7 12q5 10 11 34h96q1 16 6.5 90.5t31 126.5t56.5 78.5t68 43.5q54 24 90 24z" />
    <glyph glyph-name="agrave" unicode="&#xe0;" horiz-adv-x="493" 
d="M395 364l-3 -244q0 -73 47 -73l36 1q4 -5 4 -16l-2 -11q-77 -14 -110 -41q-22 6 -37.5 27.5t-17.5 45.5q-80 -49 -159 -73q-34 0 -70 38.5t-36 96.5q0 29 13 52.5t31 32.5q74 37 220 65v95q0 55 -17.5 82t-42 27t-52.5 -8.5t-39.5 -32.5t-11.5 -68q0 -4 -13.5 -8.5
t-34 -4.5t-28 9.5t-7.5 28.5q0 36 52 78q12 8 70.5 27t67.5 19q72 0 106 -42t34 -103zM155 68q19 -28 43.5 -28t56.5 17t53 36q3 60 3 136q-84 -11 -148 -48q-27 -13 -27 -61q0 -24 19 -52zM297 547l-172 150q16 35 56 51q66 -91 118 -158l21 -26q-4 -17 -23 -17z" />
    <glyph glyph-name="aacute" unicode="&#xe1;" horiz-adv-x="493" 
d="M395 364l-3 -244q0 -73 47 -73l36 1q4 -5 4 -16l-2 -11q-77 -14 -110 -41q-22 6 -37.5 27.5t-17.5 45.5q-80 -49 -159 -73q-34 0 -70 38.5t-36 96.5q0 29 13 52.5t31 32.5q74 37 220 65v95q0 55 -17.5 82t-42 27t-52.5 -8.5t-39.5 -32.5t-11.5 -68q0 -4 -13.5 -8.5
t-34 -4.5t-28 9.5t-7.5 28.5q0 36 52 78q12 8 70.5 27t67.5 19q72 0 106 -42t34 -103zM155 68q19 -28 43.5 -28t56.5 17t53 36q3 74 3 136q-84 -11 -148 -48q-27 -13 -27 -61q0 -24 19 -52zM399 697l-172 -150q-8 0 -14 4.5t-9 12.5q77 97 139 184q40 -16 56 -51z" />
    <glyph glyph-name="acircumflex" unicode="&#xe2;" horiz-adv-x="493" 
d="M395 364l-3 -244q0 -73 47 -73l36 1q4 -5 4 -16l-2 -11q-77 -14 -110 -41q-22 6 -37.5 27.5t-17.5 45.5q-80 -49 -159 -73q-34 0 -70 38.5t-36 96.5q0 29 13 52.5t31 32.5q74 37 220 65v95q0 55 -17.5 82t-42 27t-52.5 -8.5t-39.5 -32.5t-11.5 -68q0 -4 -13.5 -8.5
t-34 -4.5t-28 9.5t-7.5 28.5q0 36 52 78q12 8 70.5 27t67.5 19q72 0 106 -42t34 -103zM155 68q19 -28 43.5 -28t56.5 17t53 36q3 67 3 136q-84 -11 -148 -48q-27 -13 -27 -61q0 -24 19 -52zM243 669l-132 -122q-15 0 -23 17q87 105 148 192h12q54 -78 124 -164l24 -28
q-4 -17 -23 -17z" />
    <glyph glyph-name="atilde" unicode="&#xe3;" horiz-adv-x="493" 
d="M395 364l-3 -244q0 -73 47 -73l36 1q4 -5 4 -16l-2 -11q-77 -14 -110 -41q-22 6 -37.5 27.5t-17.5 45.5q-80 -49 -159 -73q-34 0 -70 38.5t-36 96.5q0 29 13 52.5t31 32.5q74 37 220 65v95q0 55 -17.5 82t-42 27t-52.5 -8.5t-39.5 -32.5t-11.5 -68q0 -4 -13.5 -8.5
t-34 -4.5t-28 9.5t-7.5 28.5q0 36 52 78q12 8 70.5 27t67.5 19q72 0 106 -42t34 -103zM155 68q19 -28 43.5 -28t56.5 17t53 36q3 72 3 136q-84 -11 -148 -48q-27 -13 -27 -61q0 -24 19 -52zM315 577q-28 0 -77.5 15.5t-73.5 15.5t-71 -28q-9 5 -16 20q18 14 37 30
q49 41 70 41t67.5 -15.5t66 -15.5t25.5 1.5t13.5 5.5t11 6t13 8.5t11.5 7.5q13 -3 17 -22q-20 -15 -51 -42.5t-43 -27.5z" />
    <glyph glyph-name="adieresis" unicode="&#xe4;" horiz-adv-x="493" 
d="M135 592q-35 25 -51 67q31 35 68 50q38 -28 49 -66q-10 -14 -30 -29.5t-36 -21.5zM351 592q-35 25 -51 67q31 35 68 50q38 -28 49 -66q-10 -14 -30 -29.5t-36 -21.5zM395 364l-3 -244q0 -73 47 -73l36 1q4 -5 4 -16l-2 -11q-77 -14 -110 -41q-22 6 -37.5 27.5t-17.5 45.5
q-80 -49 -159 -73q-34 0 -70 38.5t-36 96.5q0 29 13 52.5t31 32.5q74 37 220 65v95q0 55 -17.5 82t-42 27t-52.5 -8.5t-39.5 -32.5t-11.5 -68q0 -4 -13.5 -8.5t-34 -4.5t-28 9.5t-7.5 28.5q0 36 52 78q12 8 70.5 27t67.5 19q72 0 106 -42t34 -103zM155 68q19 -28 43.5 -28
t56.5 17t53 36q3 72 3 136q-84 -11 -148 -48q-27 -13 -27 -61q0 -24 19 -52z" />
    <glyph glyph-name="aring" unicode="&#xe5;" horiz-adv-x="493" 
d="M343 653q0 -83 -107 -100q-43 0 -73 29t-30 71q0 84 108 100q43 0 72.5 -29t29.5 -71zM245 584q44 0 44 56q0 33 -15.5 58t-41.5 25q-45 0 -45 -56q0 -33 16 -58t42 -25zM395 364l-3 -244q0 -73 47 -73l36 1q4 -5 4 -16l-2 -11q-77 -14 -110 -41q-22 6 -37.5 27.5
t-17.5 45.5q-80 -49 -159 -73q-34 0 -70 38.5t-36 96.5q0 29 13 52.5t31 32.5q74 37 220 65v95q0 55 -17.5 82t-42 27t-52.5 -8.5t-39.5 -32.5t-11.5 -68q0 -4 -13.5 -8.5t-34 -4.5t-28 9.5t-7.5 28.5q0 36 52 78q12 8 70.5 27t67.5 19q72 0 106 -42t34 -103zM155 68
q19 -28 43.5 -28t56.5 17t53 36q3 72 3 136q-84 -11 -148 -48q-27 -13 -27 -61q0 -24 19 -52z" />
    <glyph glyph-name="ae" unicode="&#xe6;" horiz-adv-x="761" 
d="M553 52q78 0 138 44q13 -5 16 -21l-103 -76q-24 -19 -105 -19t-138 83q-118 -66 -206 -83q-34 0 -71 38.5t-37 96.5q0 31 13 55.5t31 34.5q73 43 220 72v83q0 55 -17.5 82t-42 27t-52.5 -8.5t-39.5 -32.5t-11.5 -68q0 -4 -13.5 -8.5t-34 -4.5t-28 9.5t-7.5 28.5
q0 36 52 78q12 8 70.5 27t67.5 19q94 0 126 -76q50 54 134 76q51 0 102.5 -30t70.5 -99q4 -12 27 -13q6 -7 6 -14.5t-2 -15.5q-167 -49 -328 -68q0 -54 14 -100.5t52.5 -81.5t95.5 -35zM137 120q0 -24 19 -52t45 -28q52 0 140 57q-29 68 -29 143q-81 -13 -148 -53
q-27 -17 -27 -67zM617 363q0 6 -11.5 29.5t-41 50t-62.5 26.5t-49 -12q-49 -37 -58 -146q57 0 117 13t100 32q5 1 5 7z" />
    <glyph glyph-name="ccedilla" unicode="&#xe7;" horiz-adv-x="476" 
d="M212 -116q-5 2 -4 9.5t1 17.5l12 73q-89 17 -135 87.5t-46 168.5q0 66 24 117.5t56 79t70 45.5q61 27 98 27q97 0 160 -58q-3 -17 -20.5 -36t-39.5 -24q-32 38 -64 58t-78.5 20t-84.5 -60.5t-38 -125t16.5 -115.5t56.5 -86t97.5 -35t146.5 38q9 -5 9 -20l-97 -66
q-10 -6 -37 -12.5t-44 -6.5h-10l-4 -48q54 -22 77 -45t23 -62.5t-17 -58.5t-47 -34h-110q-3 4 -3 13l1 12q128 2 128 56q0 25 -23 41.5t-74 29.5z" />
    <glyph glyph-name="egrave" unicode="&#xe8;" horiz-adv-x="517" 
d="M300 52q82 0 145 44q14 -5 16 -21l-108 -76q-24 -19 -107 -19t-141 74.5t-58 188.5t63 180t150 86q76 0 134 -51q35 -30 49 -78q3 -12 28 -13q6 -7 6 -14.5t-2 -15.5q-176 -41 -346 -57q0 -128 71 -192q40 -36 100 -36zM363 357q5 3 5 7.5t-12.5 28t-43.5 50t-65 26.5
t-50 -10q-56 -38 -64 -138q54 0 123 11.5t107 24.5zM316 547l-172 150q16 35 56 51q47 -68 118 -158l21 -26q-4 -17 -23 -17z" />
    <glyph glyph-name="eacute" unicode="&#xe9;" horiz-adv-x="517" 
d="M300 52q82 0 145 44q14 -5 16 -21l-108 -76q-24 -19 -107 -19t-141 74.5t-58 188.5t63 180t150 86q76 0 134 -51q35 -30 49 -78q3 -12 28 -13q6 -7 6 -14.5t-2 -15.5q-176 -41 -346 -57q0 -128 71 -192q40 -36 100 -36zM363 357q5 3 5 7.5t-12.5 28t-43.5 50t-65 26.5
t-50 -10q-56 -38 -64 -138q54 0 123 11.5t107 24.5zM372 697l-172 -150q-8 0 -14 4.5t-9 12.5q78 97 139 184q40 -16 56 -51z" />
    <glyph glyph-name="ecircumflex" unicode="&#xea;" horiz-adv-x="517" 
d="M300 52q82 0 145 44q14 -5 16 -21l-108 -76q-24 -19 -107 -19t-141 74.5t-58 188.5t63 180t150 86q76 0 134 -51q35 -30 49 -78q3 -12 28 -13q6 -7 6 -14.5t-2 -15.5q-176 -41 -346 -57q0 -128 71 -192q40 -36 100 -36zM363 357q5 3 5 7.5t-12.5 28t-43.5 50t-65 26.5
t-50 -10q-56 -38 -64 -138q54 0 123 11.5t107 24.5zM259 669l-132 -122q-15 0 -23 17q87 105 148 192h12q54 -78 124 -164l24 -28q-4 -17 -23 -17z" />
    <glyph glyph-name="edieresis" unicode="&#xeb;" horiz-adv-x="517" 
d="M300 52q82 0 145 44q14 -5 16 -21l-108 -76q-24 -19 -107 -19t-141 74.5t-58 188.5t63 180t150 86q76 0 134 -51q35 -30 49 -78q3 -12 28 -13q6 -7 6 -14.5t-2 -15.5q-176 -41 -346 -57q0 -128 71 -192q40 -36 100 -36zM363 357q5 3 5 7.5t-12.5 28t-43.5 50t-65 26.5
t-50 -10q-56 -38 -64 -138q54 0 123 11.5t107 24.5zM143 591q-36 25 -51 66q12 14 32.5 29.5t35.5 21.5q38 -28 49 -67q-28 -36 -66 -50zM359 591q-36 25 -51 66q12 14 32.5 29.5t35.5 21.5q38 -28 49 -67q-28 -36 -66 -50z" />
    <glyph glyph-name="igrave" unicode="&#xec;" horiz-adv-x="317" 
d="M269 -3l-90 3q-70 0 -132 -8q-6 8 -6 17l2 8q43 10 58 31q11 16 17 38.5t6 129.5v96q0 62 -5.5 86t-16.5 32t-29 10l-37 3q-3 4 -3 13l3 13q52 11 84.5 22.5t76.5 33.5q11 0 15 -12q-12 -68 -12 -324q0 -46 3.5 -101.5t9.5 -56.5q15 -3 56 -3q3 -7 3 -16t-3 -15zM212 547
l-172 150q16 35 56 51q47 -68 118 -158l21 -26q-4 -17 -23 -17z" />
    <glyph glyph-name="iacute" unicode="&#xed;" horiz-adv-x="317" 
d="M269 -3l-90 3q-70 0 -132 -8q-6 8 -6 17l2 8q43 10 58 31q11 16 17 38.5t6 129.5v96q0 62 -5.5 86t-16.5 32t-29 10l-37 3q-3 4 -3 13l3 13q52 11 84.5 22.5t76.5 33.5q11 0 15 -12q-12 -68 -12 -324q0 -46 3.5 -101.5t9.5 -56.5q15 -3 56 -3q3 -7 3 -16t-3 -15zM287 697
l-172 -150q-8 0 -14 4.5t-9 12.5q77 97 139 184q40 -16 56 -51z" />
    <glyph glyph-name="icircumflex" unicode="&#xee;" horiz-adv-x="317" 
d="M269 -3l-90 3q-70 0 -132 -8q-6 8 -6 17l2 8q43 10 58 31q11 16 17 38.5t6 129.5v96q0 62 -5.5 86t-16.5 32t-29 10l-37 3q-3 4 -3 13l3 13q52 11 84.5 22.5t76.5 33.5q11 0 15 -12q-12 -68 -12 -324q0 -46 3.5 -101.5t9.5 -56.5q15 -3 56 -3q3 -7 3 -16t-3 -15zM145 669
l-132 -122q-8 0 -13.5 4.5t-8.5 12.5q86 105 148 192h12q54 -78 125 -164l23 -28q-4 -17 -23 -17z" />
    <glyph glyph-name="idieresis" unicode="&#xef;" horiz-adv-x="317" 
d="M49 589q-35 26 -50 67q12 14 32.5 29.5t35.5 21.5q37 -30 49 -67q-11 -14 -31 -29.5t-36 -21.5zM239 589q-36 27 -51 67q12 14 32.5 29.5t35.5 21.5q38 -30 49 -67q-29 -37 -66 -51zM269 -3l-90 3q-70 0 -132 -8q-6 8 -6 17l2 8q43 10 58 31q11 16 17 38.5t6 129.5v96
q0 62 -5.5 86t-16.5 32t-29 10l-37 3q-3 4 -3 13l3 13q52 11 84.5 22.5t76.5 33.5q11 0 15 -12q-12 -68 -12 -324q0 -46 3.5 -101.5t9.5 -56.5q15 -3 56 -3q3 -7 3 -16t-3 -15z" />
    <glyph glyph-name="eth" unicode="&#xf0;" horiz-adv-x="591" 
d="M493.5 506.5q53.5 -106.5 53.5 -198.5t-17.5 -149.5t-53.5 -93t-81.5 -54.5t-110.5 -31q-103 0 -173.5 75.5t-70.5 188.5q0 223 252 265q64 0 125 -37q-14 42 -40 83.5t-50 65.5l-36 36l-131 -60q-18 10 -20 42l113 48q-41 32 -128 80q2 24 19 36l5 4q74 -36 156 -92
l139 61q9 -5 15 -15t8 -25l-122 -51l7 -4q88 -68 141.5 -174.5zM185 101q46 -78 122.5 -78t108.5 57.5t32 192.5q0 55 -9 118q-71 69 -167 69q-68 0 -100.5 -49t-32.5 -140.5t46 -169.5z" />
    <glyph glyph-name="ntilde" unicode="&#xf1;" horiz-adv-x="631" 
d="M68 449l-39 -1q-4 5 -4 13t2 14q68 9 111 28q14 6 17 6q9 0 22 -28t22 -62q101 57 197 90q61 0 94 -48.5t33 -128.5l-2 -132q0 -167 15 -169.5t56 -2.5q4 -7 4 -15t-4 -16l-92 3q-83 0 -132 -8q-5 6 -5 17l1 8q29 7 45 19.5t20.5 24t7.5 35t3 91.5v83q0 70 -16 118
q-7 19 -16 28q-22 24 -53 24t-62 -12t-47 -22t-45 -30q-4 -79 -4 -211.5t13.5 -134.5t50.5 -2q4 -7 4 -15t-4 -16l-85 3q-76 0 -132 -8q-5 6 -5 17l1 8q29 7 45 19.5t20.5 24t8 43t3.5 135.5t-0.5 115.5t-1.5 29.5t-4 27t-9 19q-10 19 -34 19zM385 593q-28 0 -77 15.5
t-74 15.5t-70 -28q-9 5 -16 20q29 23 58 47t49.5 24t66.5 -15.5t65.5 -15.5t26 1.5t14 5.5t11 6t13 8.5t11.5 7.5q11 -3 17 -22q-14 -11 -47.5 -40.5t-47.5 -29.5z" />
    <glyph glyph-name="ograve" unicode="&#xf2;" 
d="M549 244q0 -222 -258 -264q-106 0 -178.5 75.5t-72.5 188.5q0 224 259 265q105 0 177.5 -77t72.5 -188zM313 23q144 0 144 184q0 104 -48 182t-127 78t-114.5 -50.5t-35.5 -144t49 -171.5t132 -78zM343 547l-172 150q14 35 56 51q54 -78 117 -158l21 -26q-4 -17 -22 -17z
" />
    <glyph glyph-name="oacute" unicode="&#xf3;" 
d="M549 244q0 -222 -258 -264q-106 0 -178.5 75.5t-72.5 188.5q0 224 259 265q105 0 177.5 -77t72.5 -188zM313 23q144 0 144 184q0 104 -48 182t-127 78t-114.5 -50.5t-35.5 -144t49 -171.5t132 -78zM431 697l-172 -150q-8 0 -14 4.5t-9 12.5q77 97 139 184q40 -16 56 -51z
" />
    <glyph glyph-name="ocircumflex" unicode="&#xf4;" 
d="M549 244q0 -222 -258 -264q-106 0 -178.5 75.5t-72.5 188.5q0 224 259 265q105 0 177.5 -77t72.5 -188zM313 23q144 0 144 184q0 104 -48 182t-127 78t-114.5 -50.5t-35.5 -144t49 -171.5t132 -78zM296 669l-132 -122q-14 0 -23 17q87 105 148 192h12q56 -78 125 -164
l23 -28q-4 -17 -22 -17z" />
    <glyph glyph-name="otilde" unicode="&#xf5;" 
d="M549 244q0 -222 -258 -264q-106 0 -178.5 75.5t-72.5 188.5q0 224 259 265q105 0 177.5 -77t72.5 -188zM313 23q144 0 144 184q0 104 -48 182t-127 78t-114.5 -50.5t-35.5 -144t49 -171.5t132 -78zM373 593q-28 0 -77 15.5t-74 15.5t-70 -28q-9 5 -16 20q29 23 58 47
t49.5 24t66.5 -15.5t65.5 -15.5t26 1.5t14 5.5t11 6t13 8.5t11.5 7.5q11 -3 17 -22q-14 -11 -47.5 -40.5t-47.5 -29.5z" />
    <glyph glyph-name="odieresis" unicode="&#xf6;" 
d="M549 244q0 -222 -258 -264q-106 0 -178.5 75.5t-72.5 188.5q0 224 259 265q105 0 177.5 -77t72.5 -188zM313 23q144 0 144 184q0 104 -48 182t-127 78t-114.5 -50.5t-35.5 -144t49 -171.5t132 -78zM180 591q-33 24 -51 66q12 14 32.5 29.5t35.5 21.5q38 -28 50 -67
q-31 -37 -67 -50zM396 591q-33 24 -51 66q12 14 32.5 29.5t35.5 21.5q38 -28 50 -67q-31 -37 -67 -50z" />
    <glyph glyph-name="divide" unicode="&#xf7;" horiz-adv-x="532" 
d="M257 327q-36 33 -54 72q40 40 74 54q39 -39 52 -73q-10 -13 -32 -29.5t-40 -23.5zM257 36q-34 31 -54 72q35 37 74 55q39 -39 52 -74q-24 -31 -72 -53zM492 276q-5 -9 -10 -36q-2 -12 -3 -17h-214q-118 0 -216 -8q-9 5 -9 14q4 9 13 54h211q121 0 219 9q9 -5 9 -16z" />
    <glyph glyph-name="oslash" unicode="&#xf8;" 
d="M113 -71q-2 -1 -7.5 -1t-7.5 2.5t-27 40.5l53 73q-84 78 -84 200q0 224 259 265q69 0 125 -36q43 70 53 88q3 2 8.5 2t9.5 -4q7 -13 25 -39l-55 -77q84 -78 84 -199q0 -222 -258 -264q-69 0 -127 33q-40 -61 -51 -84zM167.5 416.5q-35.5 -50.5 -35.5 -139t41 -164.5
l115 162q52 71 99 142q-45 50 -114.5 50t-105 -50.5zM313 23q144 0 144 184q0 98 -40 168l-94 -132q-34 -46 -120 -171q46 -49 110 -49z" />
    <glyph glyph-name="ugrave" unicode="&#xf9;" horiz-adv-x="609" 
d="M493 516q9 -2 15 -12q-9 -68 -9 -224l1 -143q0 -90 45 -90l36 1q4 -7 4 -16l-1 -11q-50 -8 -70 -19l-26 -12q-5 -3 -15 -10q-22 8 -37 35.5t-17 55.5q-85 -53 -195 -91q-64 0 -95.5 47.5t-31.5 129.5v191q0 68 -6 86.5t-35 24.5l-33 4q-3 6 -3 13l3 12q17 3 77 13l71 15
q8 -2 14 -12q-8 -55 -8 -289q0 -164 88 -164q31 0 62.5 11t47.5 21.5t41 29.5q3 66 3 95v121q0 61 -5.5 85t-16 32.5t-28.5 12.5l-33 4l-3 13l3 12q10 2 36.5 5t70.5 12t50 11zM361 547l-172 150q16 35 56 51q66 -91 118 -158l21 -26q-4 -17 -23 -17z" />
    <glyph glyph-name="uacute" unicode="&#xfa;" horiz-adv-x="609" 
d="M493 516q9 -2 15 -12q-9 -68 -9 -224l1 -143q0 -90 45 -90l36 1q4 -7 4 -16l-1 -11q-50 -8 -70 -19l-26 -12q-5 -3 -15 -10q-22 8 -37 35.5t-17 55.5q-85 -53 -195 -91q-64 0 -95.5 47.5t-31.5 129.5v191q0 68 -6 86.5t-35 24.5l-33 4q-3 6 -3 13l3 12q17 3 77 13l71 15
q8 -2 14 -12q-8 -55 -8 -289q0 -164 88 -164q31 0 62.5 11t47.5 21.5t41 29.5q3 66 3 95v121q0 61 -5.5 85t-16 32.5t-28.5 12.5l-33 4l-3 13l3 12q10 2 36.5 5t70.5 12t50 11zM429 697l-172 -150q-8 0 -13.5 4.5t-8.5 12.5q77 97 138 184q42 -16 56 -51z" />
    <glyph glyph-name="ucircumflex" unicode="&#xfb;" horiz-adv-x="609" 
d="M493 516q9 -2 15 -12q-9 -68 -9 -224l1 -143q0 -90 45 -90l36 1q4 -7 4 -16l-1 -11q-50 -8 -70 -19l-26 -12q-5 -3 -15 -10q-22 8 -37 35.5t-17 55.5q-85 -53 -195 -91q-64 0 -95.5 47.5t-31.5 129.5v191q0 68 -6 86.5t-35 24.5l-33 4q-3 6 -3 13l3 12q17 3 77 13l71 15
q8 -2 14 -12q-8 -55 -8 -289q0 -164 88 -164q31 0 62.5 11t47.5 21.5t41 29.5q3 66 3 95v121q0 61 -5.5 85t-16 32.5t-28.5 12.5l-33 4l-3 13l3 12q10 2 36.5 5t70.5 12t50 11zM293 669l-132 -122q-8 0 -13.5 4.5t-8.5 12.5q86 105 148 192h12q54 -78 125 -164l23 -28
q-4 -17 -23 -17z" />
    <glyph glyph-name="udieresis" unicode="&#xfc;" horiz-adv-x="609" 
d="M493 516q9 -2 15 -12q-9 -68 -9 -224l1 -143q0 -90 45 -90l36 1q4 -7 4 -16l-1 -11q-50 -8 -70 -19l-26 -12q-5 -3 -15 -10q-22 8 -37 35.5t-17 55.5q-85 -53 -195 -91q-64 0 -95.5 47.5t-31.5 129.5v191q0 68 -6 86.5t-35 24.5l-33 4q-3 6 -3 13l3 12q17 3 77 13l71 15
q8 -2 14 -12q-8 -55 -8 -289q0 -164 88 -164q31 0 62.5 11t47.5 21.5t41 29.5q3 66 3 95v121q0 61 -5.5 85t-16 32.5t-28.5 12.5l-33 4l-3 13l3 12q10 2 36.5 5t70.5 12t50 11zM172 591q-33 24 -51 66q12 14 32.5 29.5t35.5 21.5q38 -28 50 -67q-31 -37 -67 -50zM388 591
q-33 24 -51 66q12 14 32.5 29.5t35.5 21.5q38 -28 50 -67q-31 -37 -67 -50z" />
    <glyph glyph-name="yacute" unicode="&#xfd;" horiz-adv-x="535" 
d="M97 493l86 3q2 -5 2 -15l-2 -16q-31 0 -44 -2q9 -61 48 -155l97 -240l87 223q44 113 50 168q-36 4 -74 4q-4 6 -4 14t2 16h98q46 0 84 6q8 -13 8 -26q-25 -11 -36 -22q-27 -29 -59 -103l-145 -348q-13 -31 -42 -107.5t-40.5 -106.5t-21.5 -56.5t-23 -55.5
q-27 -62 -43 -62q-5 0 -21 6q-43 15 -97 27q0 20 9 32q36 -6 39 -6q29 0 74.5 67.5t70.5 133.5l36 96l-163 400q-25 63 -46 85q-13 16 -39 24q0 18 5 26q66 -10 104 -10zM411 697l-172 -150q-8 0 -14 4.5t-9 12.5q77 97 139 184q40 -16 56 -51z" />
    <glyph glyph-name="thorn" unicode="&#xfe;" horiz-adv-x="593" 
d="M20 803l-3 12l3 13q54 10 80 19t91 48q8 0 14 -10q-20 -124 -20 -466q128 73 182 90q75 -16 132 -91.5t57 -186.5q0 -67 -32.5 -119t-79.5 -79q-94 -53 -169 -53q-19 0 -90 15v-56q0 -267 12 -268q31 -3 112 -3q3 -7 3 -16t-3 -15l-144 3q-85 0 -140 -8q-5 5 -5 17l1 8
q41 10 56 28t19 46q11 77 11 328v616q0 66 -10 92.5t-42 31.5zM185 88q0 -24 56 -44.5t79 -20.5q57 0 104.5 51t47.5 119q0 104 -47 175t-102.5 71t-137.5 -63v-288z" />
    <glyph glyph-name="ydieresis" unicode="&#xff;" horiz-adv-x="535" 
d="M183 496q2 -5 2 -14.5t-2 -16.5q-31 0 -44 -2q9 -61 48 -155l97 -240l87 223q44 113 50 168q-36 4 -74 4l-4 17q0 5 2 13h98q46 0 84 6q8 -13 8 -26q-25 -11 -36 -22q-27 -29 -59 -103l-145 -348q-13 -31 -42 -107.5t-40.5 -106.5t-21.5 -56.5t-22.5 -55t-24 -45.5
t-18 -17t-36 10.5t-83.5 22.5q0 20 9 32q36 -6 39 -6q29 0 74.5 67.5t70.5 133.5l36 96l-163 400q-25 63 -46 85q-13 16 -39 24q0 18 5 26q66 -10 104 -10zM159 591q-36 25 -51 66q12 14 32.5 29.5t35.5 21.5q38 -28 49 -67q-28 -36 -66 -50zM375 591q-36 25 -51 66
q12 14 32.5 29.5t35.5 21.5q38 -28 49 -67q-28 -36 -66 -50z" />
    <glyph glyph-name="hbar" unicode="&#x127;" horiz-adv-x="625" 
d="M249 -3l-84 3q-78 0 -141 -8q-5 6 -5 17l1 8q41 9 55.5 27.5t22 61t7.5 313.5v186q-56 -2 -89 -5q-9 4 -9 15q13 23 13 44h85v16q0 91 -21 111q-11 11 -28 13l-36 4q-3 5 -3 12.5t3 12.5q71 13 110 32q26 13 59 35q10 0 16 -10q-12 -69 -17 -226h28q137 0 261 8
q10 -8 10 -16q-14 -21 -14 -44h-286q-2 -67 -2 -191q127 70 203 93q65 0 98 -48t33 -129l-2 -128q0 -171 15 -173.5t59 -2.5q4 -7 4 -13t-4 -18l-92 3q-83 0 -132 -8q-6 8 -6 17l2 8q41 9 55 27t16.5 43t2.5 101t-0.5 94.5t-3 48t-9 45t-16.5 32.5q-20 31 -74.5 31
t-148.5 -66q-1 -50 -1 -106q0 -231 12.5 -235t52.5 -4q3 -7 3 -16t-3 -15z" />
    <glyph glyph-name="Itilde" unicode="&#x128;" horiz-adv-x="356" 
d="M307 723q2 -6 2 -15t-2 -16q-44 0 -67 -3q-17 -2 -17 -225v-163q0 -95 4.5 -182t11.5 -88q26 -3 88 -3l2 -16q0 -9 -2 -15l-127 3q-105 0 -172 -8q-5 5 -5 13t1 12q65 14 80 33q9 12 12 21t5 28q12 78 12 253v112q0 223 -17 225q-23 3 -67 3l-2 16q0 9 2 15l130 -3z
M251 793q-28 0 -77.5 15.5t-73.5 15.5t-71 -28q-9 5 -16 20q18 13 36 29q47 42 69.5 42t69 -15.5t66 -15.5t25.5 1.5t13.5 5.5t11 6t13 8.5t11.5 7.5q13 -3 17 -22q-14 -11 -47.5 -40.5t-46.5 -29.5z" />
    <glyph glyph-name="itilde" unicode="&#x129;" horiz-adv-x="317" 
d="M269 -3l-90 3q-70 0 -132 -8q-6 8 -6 17l2 8q43 10 58 31q11 16 17 38.5t6 129.5v96q0 62 -5.5 86t-16.5 32t-29 10l-37 3q-3 4 -3 13l3 13q52 11 84.5 22.5t76.5 33.5q11 0 15 -12q-12 -68 -12 -324q0 -46 3.5 -101.5t9.5 -56.5q15 -3 56 -3q3 -7 3 -16t-3 -15zM216 593
q-28 0 -77.5 15.5t-74 15.5t-69.5 -28q-9 5 -16 20q16 13 34 28.5t23 19.5q28 23 49.5 23t67.5 -15.5t65.5 -15.5t25.5 1.5t13.5 5.5t11 6t13 8.5t11.5 7.5q12 -3 18 -22q-20 -15 -34 -27q-47 -43 -61 -43z" />
    <glyph glyph-name="dotlessi" unicode="&#x131;" horiz-adv-x="317" 
d="M269 -3l-90 3q-70 0 -132 -8q-6 8 -6 17l2 8q43 10 58 31q11 16 17 38.5t6 129.5v96q0 62 -5.5 86t-16.5 32t-29 10l-37 3q-3 4 -3 13l3 13q52 11 84.5 22.5t76.5 33.5q11 0 15 -12q-12 -68 -12 -324q0 -46 3.5 -101.5t9.5 -56.5q15 -3 56 -3q3 -7 3 -16t-3 -15z" />
    <glyph glyph-name="ij" unicode="&#x133;" horiz-adv-x="611" 
d="M269 -3l-90 3q-70 0 -132 -8q-6 8 -6 17l2 8q43 10 58 31q11 16 17 38.5t6 129.5v96q0 62 -5.5 86t-16.5 32t-29 10l-37 3q-3 4 -3 13l3 13q52 11 84.5 22.5t76.5 33.5q11 0 15 -12q-12 -68 -12 -324q0 -46 3.5 -101.5t9.5 -56.5q15 -3 56 -3q3 -7 3 -16t-3 -15zM175 639
q-36 25 -51 66q12 14 32.5 29.5t35.5 21.5q38 -28 49 -67q-28 -36 -66 -50zM428 305q0 68 -9 96.5t-43 31.5q-13 2 -37 3q-3 7 -3 15t3 12q40 7 84 21q71 28 84 35q14 0 14 -10q-13 -81 -13 -320v-245q0 -102 -20.5 -159t-82.5 -105l-84 -64q-16 5 -16 20l44 44
q55 55 67 124t12 277v224zM484 639q-33 24 -51 66q12 14 32.5 29.5t35.5 21.5q38 -28 50 -67q-31 -37 -67 -50z" />
    <glyph glyph-name="Jcircumflex" unicode="&#x134;" horiz-adv-x="353" 
d="M325 761l-149 96l-151 -96q-8 1 -13 6t-7 14q91 86 164 163h12q80 -82 139 -140l25 -23q-2 -18 -20 -20zM164 720q84 0 128 8q5 -6 5 -13.5t-1 -11.5q-44 -8 -57 -87q-10 -45 -10 -221v-311q0 -122 -20.5 -174t-95.5 -110l-100 -76q-18 4 -18 23l56 57q58 59 73.5 140.5
t15.5 222.5v266q0 254 -16 256q-27 3 -85 3l-3 16q0 9 3 15z" />
    <glyph glyph-name="jcircumflex" unicode="&#x135;" horiz-adv-x="293" 
d="M111 81v224q0 68 -9 96.5t-43 31.5l-38 3q-2 7 -2 15l2 12q40 7 84 21q65 25 84 35q13 0 15 -7v-3q-13 -73 -13 -320v-245q0 -102 -20.5 -159t-82.5 -105l-84 -64q-16 5 -16 20l44 44q55 55 67 125t12 276zM136 669l-132 -122q-14 0 -23 17q87 105 148 192h12
q56 -78 125 -164l23 -28q-4 -17 -22 -17z" />
    <glyph glyph-name="kcedilla" unicode="&#x137;" horiz-adv-x="539" 
d="M352 -140q0 -73 -60 -141q-30 -35 -63 -52q-13 1 -16 20q68 53 74 109q-40 25 -62 56q26 37 64 68q21 -13 39.5 -30.5t23.5 -29.5zM508 29q5 -1 17 -1t22 1q4 -10 4 -17.5t-2 -11.5q-46 -3 -83.5 -11.5t-41.5 -8.5q-23 0 -160 222q-53 88 -59 97l98 72q55 40 102 90
q-33 7 -74 8q-3 6 -3 15l3 12q82 -3 108 -3t76 4q6 -8 6 -24l-233 -154q52 -82 99 -154.5t74 -102.5t47 -33zM249 -3l-84 3q-78 0 -141 -8q-5 6 -5 17l1 8q41 9 55.5 27.5t22 61t7.5 313.5v256q0 91 -21 111q-11 11 -28 13l-36 4q-3 5 -3 12.5t3 12.5q71 13 110 32
q26 13 59 35q10 0 16 -10q-21 -131 -21 -469v-117q0 -263 12.5 -267t52.5 -4q3 -7 3 -16t-3 -15z" />
    <glyph glyph-name="kgreenlandic" unicode="&#x138;" horiz-adv-x="539" 
d="M508 29q5 -1 17 -1t22 1q4 -10 4 -17.5t-2 -11.5q-46 -3 -83.5 -11.5t-41.5 -8.5q-22 0 -159 232q-53 90 -60 100l98 72q74 56 108 91q-21 4 -75 8q-3 5 -3 14l3 12q83 -2 117 -2t67 4q7 -10 7 -24l-239 -155q50 -89 96 -163q82 -134 124 -140zM249 -3l-84 3
q-78 0 -141 -8q-5 6 -5 17l1 8q41 9 55.5 27.5t19.5 46.5q10 60 10 258v79q0 30 -21 36q-10 3 -28 4l-36 3q-3 5 -3 12.5t3 12.5q93 17 128 40q4 3 19 14t18 13q10 0 16 -10q-17 -44 -17 -193v-48q0 -276 12.5 -280t52.5 -4q3 -7 3 -16t-3 -15z" />
    <glyph glyph-name="ldot" unicode="&#x140;" horiz-adv-x="369" 
d="M275 -3l-110 3q-86 0 -149 -8q-5 6 -5 17l1 8q47 9 62.5 27t23 61t7.5 314v256q0 91 -21 111q-11 11 -28 13l-36 4q-3 5 -3 12.5t3 12.5q71 13 110 32q26 13 59 35q10 0 16 -10q-21 -131 -21 -469v-117q0 -263 13 -267q18 -4 78 -4q2 -7 2 -16t-2 -15zM317 384
q-39 30 -54 73q13 15 35.5 32t38.5 23q43 -34 54 -73q-12 -16 -34 -32.5t-40 -22.5z" />
    <glyph glyph-name="Lslash" unicode="&#x141;" horiz-adv-x="623" 
d="M85 723l96 -3q92 0 143 8q5 -6 5 -16l-1 -9q-41 -11 -54.5 -27.5t-16.5 -47.5q-12 -117 -12 -248l43 25q26 16 108 70t116 80q12 -3 16 -10v-52l-283 -168v-153q0 -87 7 -132q36 -4 84 -4q103 0 204 27q15 24 29 62.5t16 45.5q6 1 16 1t22 -9q-8 -43 -22 -147
q-1 -12 -13 -13q-44 -7 -117 -7l-171 4h-67q-113 0 -166 -8q-6 8 -6 17l2 8q52 12 69 37q12 20 18 65t7 152q-5 -3 -53 -42q-14 0 -17 10v46l72 43v223q0 137 -14 138q-18 3 -60 3q-2 7 -2 16t2 15z" />
    <glyph glyph-name="lslash" unicode="&#x142;" horiz-adv-x="307" 
d="M113 407q-28 -14 -74 -51q-9 0 -14 8v49l88 51v211q0 91 -21 111q-11 11 -28 13l-36 4q-3 5 -3 12.5t3 12.5q71 13 110 32q26 13 59 35q10 0 16 -10q-15 -93 -21 -376q34 22 76 58q11 0 16 -10v-52l-92 -53v-153q0 -263 13 -267q18 -4 78 -4q2 -7 2 -16t-2 -15l-110 3
q-86 0 -149 -8q-5 6 -5 17l1 8q47 9 62.5 27t23 59.5t7.5 303.5z" />
    <glyph glyph-name="Nacute" unicode="&#x143;" horiz-adv-x="860" 
d="M563 895l-192 -124q-8 0 -13 5t-7 15q90 85 164 162q38 -24 48 -58zM264 -3l-113 3q-69 0 -116 -8q-6 8 -6 17l2 8q52 12 69 37q13 20 17 50q18 130 23 549q-25 27 -44 35t-61 11q-3 6 -3 15.5t3 14.5l164 4q30 0 202 -206q98 -116 287 -370q-3 78 -6.5 278.5
t-12.5 253.5q-22 3 -81 3q-4 8 -4 16.5t3 14.5l113 -3q69 0 116 8q5 -6 5 -17l-1 -8q-49 -11 -65 -31t-19 -56q-13 -208 -13 -631l-24 -10l-22 28q-191 252 -374 478q-72 88 -131 142q0 -135 0.5 -321t12.5 -271q23 -3 79 -3q3 -8 3 -16t-3 -15z" />
    <glyph glyph-name="nacute" unicode="&#x144;" horiz-adv-x="631" 
d="M68 449l-39 -1q-4 5 -4 13t2 14q68 9 111 28q14 6 17 6q9 0 22 -28t22 -62q101 57 197 90q61 0 94 -48.5t33 -128.5l-2 -132q0 -167 15 -169.5t56 -2.5q4 -7 4 -15t-4 -16l-92 3q-83 0 -132 -8q-5 6 -5 17l1 8q29 7 45 19.5t20.5 24t7.5 35t3 91.5v83q0 70 -16 118
q-7 19 -16 28q-22 24 -53 24t-62 -12t-47 -22t-45 -30q-4 -79 -4 -211.5t13.5 -134.5t50.5 -2q4 -7 4 -15t-4 -16l-85 3q-76 0 -132 -8q-5 6 -5 17l1 8q29 7 45 19.5t20.5 24t8 43t3.5 135.5t-0.5 115.5t-1.5 29.5t-4 27t-9 19q-10 19 -34 19zM495 697l-172 -150
q-8 0 -14 4.5t-9 12.5q77 97 139 184q40 -16 56 -51z" />
    <glyph glyph-name="OE" unicode="&#x152;" horiz-adv-x="1092" 
d="M421 728l254 -8h84l236 7q17 0 17 -11q0 -1 -4 -24q-9 -62 -13 -139q-12 -6 -22 -6t-17 4q-16 100 -19 113q-91 21 -163.5 21t-100.5 -4q-12 -64 -12 -285q16 -4 85.5 -4t103.5 4t49.5 16t23.5 49q21 0 30 -6q-9 -60 -9 -84l1 -87q-6 -5 -17 -5l-15 2l-10 66
q-54 9 -125.5 9t-116.5 -5v-179q0 -87 7 -132q31 -4 71 -4q101 0 204 27q15 24 29 62.5t16 45.5q5 1 15 1t22 -9q-14 -72 -21 -147q-1 -12 -13 -13q-44 -7 -118 -7l-170 4h-54q-35 0 -103 -6t-137 -6q-144 0 -244.5 106t-100.5 263q0 69 19 126.5t48 94.5t67 66t73.5 44
t70.5 25q51 15 79 15zM296.5 95q64.5 -56 137 -56t122.5 24q3 11 11.5 71.5t8.5 217.5t-2.5 219.5t-6.5 93.5q-58 18 -168.5 18t-172.5 -79.5t-62 -192.5q0 -91 34 -175.5t98.5 -140.5z" />
    <glyph glyph-name="oe" unicode="&#x153;" horiz-adv-x="923" 
d="M577 120q42 -68 126.5 -68t147.5 44q10 -3 16 -21l-108 -76q-27 -19 -91 -19q-119 0 -177 103q-62 -78 -200 -103q-106 0 -178.5 75.5t-72.5 188.5q0 224 259 265q60 0 111.5 -29.5t85.5 -80.5q58 84 169 110q76 0 135 -51q35 -30 48 -78q4 -12 28 -13q7 -7 7 -18l-3 -12
q-176 -41 -345 -57q0 -92 42 -160zM182 101.5q50 -78.5 127.5 -78.5t112.5 50t35 143.5t-48.5 172t-126 78.5t-114 -51.5t-36.5 -143.5t50 -170.5zM717 442.5q-31 26.5 -64.5 26.5t-49.5 -10q-55 -37 -64 -138q55 0 123 11.5t106 24.5q5 3 5 7.5t-12.5 28t-43.5 50z" />
    <glyph glyph-name="Racute" unicode="&#x154;" horiz-adv-x="704" 
d="M440 895l-192 -124q-8 0 -13 5t-7 15q91 85 164 162q38 -24 48 -58zM49 723l152 -3h119q113 0 178 -48.5t65 -150.5q0 -77 -40.5 -126.5t-110.5 -69.5q35 -61 88.5 -139.5t85 -114.5t53.5 -39.5t68 -3.5q2 -8 2 -15.5t-2 -15.5q-73 -4 -113.5 -10.5t-48 -6.5t-30 25.5
t-52.5 71t-54.5 84.5t-55 89.5t-37.5 61.5q-64 0 -99 4v-149q0 -60 7 -132q31 -7 88 -7q3 -8 3 -17.5t-3 -13.5l-133 3q-76 0 -139 -8q-5 6 -5 17l1 8q52 12 68 37q13 20 17 50q12 91 12 246q0 331 -18 337q-19 5 -66 5q-4 7 -4 13t4 18zM434.5 636q-41.5 52 -110.5 52
t-96 -4q-11 -44 -11 -332q36 -3 100 -3t111.5 44t47.5 117.5t-41.5 125.5z" />
    <glyph glyph-name="Rcommaaccent" unicode="&#x156;" horiz-adv-x="704" 
d="M420 -140q0 -73 -60 -141q-30 -35 -63 -52q-13 1 -16 20q68 53 74 109q-40 25 -62 56q26 37 64 68q21 -13 39.5 -30.5t23.5 -29.5zM49 723l152 -3h119q113 0 178 -48.5t65 -150.5q0 -77 -40.5 -126.5t-110.5 -69.5q35 -61 88.5 -139.5t85 -114.5t53.5 -39.5t68 -3.5
q2 -8 2 -15.5t-2 -15.5q-73 -4 -113.5 -10.5t-48 -6.5t-30 25.5t-52.5 71t-54.5 84.5t-55 89.5t-37.5 61.5q-64 0 -99 4v-149q0 -60 7 -132q31 -7 88 -7q3 -8 3 -17.5t-3 -13.5l-133 3q-76 0 -139 -8q-5 6 -5 17l1 8q52 12 68 37q13 20 17 50q12 91 12 246q0 331 -18 337
q-19 5 -66 5q-4 7 -4 13t4 18zM434.5 636q-41.5 52 -110.5 52t-96 -4q-11 -46 -11 -332q36 -3 100 -3t111.5 44t47.5 117.5t-41.5 125.5z" />
    <glyph glyph-name="rcommaaccent" unicode="&#x157;" horiz-adv-x="423" 
d="M213 -140q0 -73 -60 -141q-31 -36 -62 -52q-14 1 -16 20q67 53 73 109q-40 25 -61 56q23 34 64 68q21 -13 39.5 -30.5t22.5 -29.5zM67 449l-39 -1q-5 5 -5 15l2 12q68 9 111 28q14 6 17 6q11 0 25 -39.5t17 -78.5q75 78 136 118q40 0 66 -23.5t26 -58.5q0 -40 -71 -40
q-15 53 -51 53q-24 0 -100 -83q-6 -76 -6 -242q0 -83 13 -84q23 -3 81 -3q3 -7 3 -16t-3 -15l-112 3q-82 0 -145 -8q-5 6 -5 17l1 8q53 10 68 31q11 16 16 51.5t5 139.5t-0.5 115t-1.5 29t-4 27t-9 20q-10 19 -35 19z" />
    <glyph glyph-name="Rcaron" unicode="&#x158;" horiz-adv-x="704" 
d="M299 848l149 96q8 0 13 -5t7 -15q-91 -85 -164 -163h-12q-57 63 -139 139l-25 24q3 19 20 20zM49 723l152 -3h119q113 0 178 -48.5t65 -150.5q0 -77 -40.5 -126.5t-110.5 -69.5q35 -61 87.5 -139t85 -114.5t54.5 -40t68 -3.5q2 -8 2 -15.5t-2 -15.5q-73 -4 -113.5 -10.5
t-48 -6.5t-30 25.5t-52.5 71t-54.5 84.5t-55 89.5t-37.5 61.5q-64 0 -99 4v-149q0 -60 7 -132q31 -7 88 -7q3 -8 3 -17.5t-3 -13.5l-133 3q-76 0 -139 -8q-5 6 -5 17l1 8q52 12 68 37q13 20 17 50q12 91 12 246q0 331 -18 337q-19 5 -66 5q-4 7 -4 13t4 18zM434.5 636
q-41.5 52 -110.5 52t-96 -4q-11 -46 -11 -332q36 -3 100 -3t111.5 44t47.5 117.5t-41.5 125.5z" />
    <glyph glyph-name="rcaron" unicode="&#x159;" horiz-adv-x="424" 
d="M68 449l-39 -1q-5 5 -5 15l3 12q68 9 111 28q14 6 17 6q10 0 24 -40t17 -78q77 78 136 118q41 0 66.5 -23.5t25.5 -58.5q0 -40 -71 -40q-15 53 -50 53q-24 0 -100 -83q-7 -76 -7 -242q0 -83 13 -84q23 -3 82 -3q2 -7 2 -16t-2 -15l-112 3q-83 0 -146 -8q-5 6 -5 17l1 8
q53 10 68 31q11 16 16.5 51.5t5.5 145t-1 125.5t-6 38q-8 41 -44 41zM93 775l132 -123l131 123q8 0 14 -4.5t9 -13.5q-87 -105 -148 -192h-12q-56 78 -125 163l-23 29q4 18 22 18z" />
    <glyph glyph-name="circumflex" unicode="&#x2c6;" horiz-adv-x="624" 
d="M311 669l-132 -122q-15 0 -23 17q87 105 148 192h12q54 -78 124 -164l24 -28q-4 -17 -23 -17z" />
    <glyph glyph-name="tilde" unicode="&#x2dc;" horiz-adv-x="636" 
d="M389 593q-28 0 -77 15.5t-74 15.5t-70 -28q-9 5 -16 20q29 23 58 47t49.5 24t66.5 -15.5t65.5 -15.5t26 1.5t14 5.5t11 6t13 8.5t11.5 7.5q11 -3 17 -22q-14 -11 -47.5 -40.5t-47.5 -29.5z" />
    <glyph glyph-name="endash" unicode="&#x2013;" horiz-adv-x="665" 
d="M331 272q165 0 278 9q10 -4 10 -16q-6 -12 -14 -48h-273q-163 0 -276 -8q-9 4 -9 15q7 20 13 48h271z" />
    <glyph glyph-name="emdash" unicode="&#x2014;" horiz-adv-x="1073" 
d="M535 272q289 0 482 8q10 -4 10 -16q-6 -13 -14 -47h-477q-287 0 -480 -8q-9 4 -9 15q7 20 13 48h475z" />
    <glyph glyph-name="quoteleft" unicode="&#x2018;" horiz-adv-x="231" 
d="M67 667q0 35 29 87.5t79 100.5q16 0 21 -15q-52 -75 -52 -120q33 -27 53 -71q-37 -42 -77 -57q-18 15 -33.5 37.5t-19.5 37.5z" />
    <glyph glyph-name="quoteright" unicode="&#x2019;" horiz-adv-x="197" 
d="M164 780q0 -35 -29 -87.5t-79 -100.5q-16 0 -21 15q52 74 52 120q-33 27 -54 70q38 41 78 58q18 -16 33.5 -38.5t19.5 -36.5z" />
    <glyph glyph-name="quotesinglbase" unicode="&#x201a;" horiz-adv-x="248" 
d="M197 37q0 -35 -29 -87.5t-79 -100.5q-16 0 -21 15q52 75 52 120q-33 27 -53 71q37 42 77 57q18 -15 33.5 -37.5t19.5 -37.5z" />
    <glyph glyph-name="quotedblleft" unicode="&#x201c;" horiz-adv-x="397" 
d="M67 667q0 35 29 87.5t79 100.5q16 0 21 -15q-52 -75 -52 -120q33 -27 53 -71q-37 -42 -77 -57q-18 15 -33.5 37.5t-19.5 37.5zM233 667q0 35 29 87.5t79 100.5q17 0 22 -15q-52 -73 -52 -120q33 -27 53 -71q-37 -42 -77 -57q-18 15 -33.5 37.5t-20.5 37.5z" />
    <glyph glyph-name="quotedblright" unicode="&#x201d;" horiz-adv-x="397" 
d="M164 780q0 -35 -29 -87.5t-79 -100.5q-16 0 -21 15q52 74 52 120q-33 27 -54 70q38 41 78 58q18 -16 33.5 -38.5t19.5 -36.5zM331 780q0 -35 -29 -87.5t-79 -100.5q-17 0 -22 15q52 72 52 120q-33 28 -53 70q36 41 77 58q39 -33 54 -75z" />
    <glyph glyph-name="quotedblbase" unicode="&#x201e;" horiz-adv-x="415" 
d="M197 37q0 -35 -29 -87.5t-79 -100.5q-16 0 -21 15q52 75 52 120q-33 27 -53 71q37 42 77 57q18 -15 33.5 -37.5t19.5 -37.5zM364 37q0 -35 -29 -87.5t-79 -100.5q-16 0 -21 15q52 75 52 120q-32 26 -54 71q39 42 78 57q18 -15 33.5 -37.5t19.5 -37.5z" />
    <glyph glyph-name="dagger" unicode="&#x2020;" horiz-adv-x="425" 
d="M253 559q73 0 158 41q8 -3 8 -11q-11 -42 -11 -100q-100 20 -155 20h-81q-74 0 -157 -41q-8 1 -8 9q10 44 10 100q100 -18 155 -18h13q-4 64 -17 173l-5 36q61 8 106 24q8 0 12 -11q-34 -99 -40 -222h12zM207 -264l-24 259q0 153 -11 384l-3 77q19 5 43 5l45 -5
q-13 -288 -13 -461l-24 -259h-13z" />
    <glyph glyph-name="daggerdbl" unicode="&#x2021;" horiz-adv-x="425" 
d="M253 559q73 0 158 41q8 -3 8 -11q-11 -42 -11 -100q-100 20 -155 20h-81q-74 0 -157 -41q-8 1 -8 9q10 44 10 100q100 -18 155 -18h13q-4 64 -17 173l-5 36q61 8 106 24q8 0 12 -11q-34 -99 -40 -222h12zM172 -69q-72 0 -157 -42q-8 3 -8 11q10 43 10 100
q100 -20 155 -20h81q73 0 158 41q8 -1 8 -9q-11 -44 -11 -100q-100 19 -155 19h-14q4 -66 19 -174l5 -36q-59 -8 -107 -24q-8 0 -12 11q33 94 40 223h-12zM349 260l-8 -36h-112l15 -48q0 -55 10 -120l3 -24q-17 -5 -43 -5t-45 5q14 91 14 144l13 48q-67 0 -113 -5q-6 2 -6 9
q4 12 8 36h111l-13 48q0 48 -11 120l-3 24q26 7 41 7q30 0 47 -7q-13 -91 -13 -144l-15 -48q72 0 115 5q5 -2 5 -9z" />
    <glyph glyph-name="bullet" unicode="&#x2022;" horiz-adv-x="461" 
d="M213 151q-77 55 -113 148q28 32 73.5 66.5t78.5 46.5q38 -29 68 -70.5t41 -77.5q-23 -31 -67.5 -66t-80.5 -47z" />
    <glyph glyph-name="ellipsis" unicode="&#x2026;" horiz-adv-x="755" 
d="M129 -20q-40 33 -62 81q35 40 84 63q42 -37 60 -83q-11 -15 -36 -33.5t-46 -27.5zM361 -20q-40 33 -62 81q35 40 84 63q42 -37 60 -83q-11 -15 -36 -33.5t-46 -27.5zM593 -20q-40 33 -62 81q35 40 84 63q42 -37 60 -83q-11 -15 -36 -33.5t-46 -27.5z" />
    <glyph glyph-name="guilsinglleft" unicode="&#x2039;" horiz-adv-x="320" 
d="M33 241v14q57 47 120 107.5t96 100.5q19 0 25 -15l2 -5l-139 -195l139 -195q-5 -20 -27 -20q-81 96 -216 208z" />
    <glyph glyph-name="guilsinglright" unicode="&#x203a;" horiz-adv-x="320" 
d="M287 255v-14q-135 -112 -216 -208q-19 0 -25 15l-2 5l139 195l-139 195q5 20 27 20q33 -40 96 -100.5t120 -107.5z" />
    <glyph glyph-name="Euro" unicode="&#x20ac;" horiz-adv-x="512" 
d="M185 207q91 0 170 6q8 -2 8 -12q-4 -7 -11 -34h-179q34 -120 135 -120q61 0 143 26q6 -8 6 -21l-102 -60q-18 -12 -67 -12q-83 0 -133.5 51t-67.5 134l-59 -5q-8 3 -8 12q8 17 11 35h154zM431 365l-14 3q-9 52 -21 79q-37 28 -98 28t-95.5 -48.5t-42.5 -114.5h37
q95 0 175 7q8 -3 8 -12q-5 -12 -11 -36h-170q-110 0 -160 -6q-8 3 -8 12q9 19 10 35h47q12 59 45 102t71 62q67 33 100 33q78 0 148 -26q-4 -33 -7 -114q-8 -4 -14 -4z" />
    <glyph glyph-name="fi" unicode="&#xfb01;" horiz-adv-x="652" 
d="M319 -3l-138 3q-83 0 -152 -8q-5 6 -5 17l1 8q65 13 78 51q16 45 16 347v33l-99 -1q-7 4 -7 12q5 10 11 34h96q1 16 6.5 90.5t31 126.5t56.5 78.5t68 43.5q54 24 96 24t98.5 -27t86.5 -76q-3 -5 -8 -13.5t-24.5 -22.5t-42.5 -14q-89 110 -163 110q-35 0 -71 -57
t-43 -124.5t-8 -138.5q177 0 250 10q36 3 79 22q11 0 15 -12q-12 -68 -12 -324q0 -46 3.5 -101.5t9.5 -56.5q15 -3 56 -3q3 -7 3 -16t-3 -15l-91 3q-69 0 -132 -8q-5 6 -5 17l1 8q43 10 58 31q11 16 17.5 38.5t6.5 129.5v107q0 64 -8 95t-34 31h-216v-150q0 -266 12 -267
q41 -4 106 -4q4 -8 4 -15.5t-4 -15.5z" />
    <glyph glyph-name="fl" unicode="&#xfb02;" horiz-adv-x="645" 
d="M319 -3l-138 3q-83 0 -152 -8q-5 6 -5 17l1 8q65 13 78 51q16 45 16 347v33l-99 -1q-7 4 -7 12q5 10 11 34h96q1 16 6.5 90.5t31 126.5t56.5 78.5t68 43.5q54 24 83.5 24t79.5 -16q50 25 92 55q8 0 15 -10q-21 -131 -21 -469v-117q0 -264 13 -267q23 -4 77 -4q3 -7 3 -16
t-3 -15l-110 3q-79 0 -148 -8q-6 8 -6 17l2 8q48 10 63.5 28.5t22.5 67.5t7 306v256q0 54 -5 77q-76 61 -122 61q-35 0 -71 -57t-43 -124.5t-8 -138.5q76 0 132 7q6 -4 6 -13q-4 -8 -6.5 -20.5t-3.5 -15.5l-130 -2v-150q0 -266 12 -267q41 -4 106 -4q4 -8 4 -15.5t-4 -15.5z
" />
    </font>
</defs>
</svg>
